<svg xmlns="http://www.w3.org/2000/svg" version="1.1" xmlns:xlink="http://www.w3.org/1999/xlink" width="1000" height="1000"><g clip-path="url(#SvgjsClipPath1030)"><rect width="1000" height="1000" fill="#ffffff"></rect><g transform="matrix(2,0,0,2,0,0)"><svg xmlns="http://www.w3.org/2000/svg" version="1.1" xmlns:xlink="http://www.w3.org/1999/xlink" width="500" height="500"><svg xmlns="http://www.w3.org/2000/svg" xmlns:xlink="http://www.w3.org/1999/xlink" width="500" zoomAndPan="magnify" viewBox="0 0 375 374.999991" height="500" preserveAspectRatio="xMidYMid meet" version="1.0"><defs><clipPath id="662491adab"><path d="M 268.445312 269.757812 L 287.59375 269.757812 L 287.59375 279.761719 L 268.445312 279.761719 Z M 268.445312 269.757812 " clip-rule="nonzero"></path></clipPath><clipPath id="fc21816abb"><path d="M 272.195312 269.757812 L 283.808594 269.757812 C 284.804688 269.757812 285.757812 270.152344 286.460938 270.855469 C 287.164062 271.558594 287.558594 272.511719 287.558594 273.507812 L 287.558594 276.011719 C 287.558594 277.003906 287.164062 277.960938 286.460938 278.664062 C 285.757812 279.367188 284.804688 279.761719 283.808594 279.761719 L 272.195312 279.761719 C 271.199219 279.761719 270.246094 279.367188 269.542969 278.664062 C 268.839844 277.960938 268.445312 277.003906 268.445312 276.011719 L 268.445312 273.507812 C 268.445312 272.511719 268.839844 271.558594 269.542969 270.855469 C 270.246094 270.152344 271.199219 269.757812 272.195312 269.757812 Z M 272.195312 269.757812 " clip-rule="nonzero"></path></clipPath><clipPath id="801722db5a"><path d="M 0.445312 0.757812 L 19.59375 0.757812 L 19.59375 10.761719 L 0.445312 10.761719 Z M 0.445312 0.757812 " clip-rule="nonzero"></path></clipPath><clipPath id="5abd5b1082"><path d="M 4.195312 0.757812 L 15.808594 0.757812 C 16.804688 0.757812 17.757812 1.152344 18.460938 1.855469 C 19.164062 2.558594 19.558594 3.511719 19.558594 4.507812 L 19.558594 7.011719 C 19.558594 8.003906 19.164062 8.960938 18.460938 9.664062 C 17.757812 10.367188 16.804688 10.761719 15.808594 10.761719 L 4.195312 10.761719 C 3.199219 10.761719 2.246094 10.367188 1.542969 9.664062 C 0.839844 8.960938 0.445312 8.003906 0.445312 7.011719 L 0.445312 4.507812 C 0.445312 3.511719 0.839844 2.558594 1.542969 1.855469 C 2.246094 1.152344 3.199219 0.757812 4.195312 0.757812 Z M 4.195312 0.757812 " clip-rule="nonzero"></path></clipPath><clipPath id="c2efd2205e"><rect x="0" width="20" y="0" height="11"></rect></clipPath><clipPath id="93403e9c73"><path d="M 108.8125 180 L 174.8125 180 L 174.8125 197 L 108.8125 197 Z M 108.8125 180 " clip-rule="nonzero"></path></clipPath><clipPath id="69a2a29b57"><path d="M 12 13 L 16 13 L 16 16.320312 L 12 16.320312 Z M 12 13 " clip-rule="nonzero"></path></clipPath><clipPath id="34f7973607"><path d="M 4 13 L 8 13 L 8 16.320312 L 4 16.320312 Z M 4 13 " clip-rule="nonzero"></path></clipPath><clipPath id="58bde0401e"><path d="M 47 13 L 51 13 L 51 16.320312 L 47 16.320312 Z M 47 13 " clip-rule="nonzero"></path></clipPath><clipPath id="044efee253"><path d="M 55 13 L 59 13 L 59 16.320312 L 55 16.320312 Z M 55 13 " clip-rule="nonzero"></path></clipPath><clipPath id="43aa2c8921"><path d="M 2 0.238281 L 66.8125 0.238281 L 66.8125 15 L 2 15 Z M 2 0.238281 " clip-rule="nonzero"></path></clipPath><clipPath id="730be9c5bc"><path d="M 1.058594 0.238281 L 2 0.238281 L 2 13 L 1.058594 13 Z M 1.058594 0.238281 " clip-rule="nonzero"></path></clipPath><clipPath id="fcceb1be04"><rect x="0" width="67" y="0" height="17"></rect></clipPath><clipPath id="a4c22528a1"><path d="M 60 192 L 64 192 L 64 196.957031 L 60 196.957031 Z M 60 192 " clip-rule="nonzero"></path></clipPath><clipPath id="6c51ed6d23"><path d="M 87.339844 269.757812 L 106.488281 269.757812 L 106.488281 279.761719 L 87.339844 279.761719 Z M 87.339844 269.757812 " clip-rule="nonzero"></path></clipPath><clipPath id="af74b9b23d"><path d="M 91.089844 269.757812 L 102.707031 269.757812 C 103.699219 269.757812 104.652344 270.152344 105.355469 270.855469 C 106.058594 271.558594 106.457031 272.511719 106.457031 273.507812 L 106.457031 276.011719 C 106.457031 277.003906 106.058594 277.960938 105.355469 278.664062 C 104.652344 279.367188 103.699219 279.761719 102.707031 279.761719 L 91.089844 279.761719 C 90.09375 279.761719 89.140625 279.367188 88.4375 278.664062 C 87.734375 277.960938 87.339844 277.003906 87.339844 276.011719 L 87.339844 273.507812 C 87.339844 272.511719 87.734375 271.558594 88.4375 270.855469 C 89.140625 270.152344 90.09375 269.757812 91.089844 269.757812 Z M 91.089844 269.757812 " clip-rule="nonzero"></path></clipPath><clipPath id="c8b4fbb823"><path d="M 0.339844 0.757812 L 19.488281 0.757812 L 19.488281 10.761719 L 0.339844 10.761719 Z M 0.339844 0.757812 " clip-rule="nonzero"></path></clipPath><clipPath id="4a19b08d32"><path d="M 4.089844 0.757812 L 15.707031 0.757812 C 16.699219 0.757812 17.652344 1.152344 18.355469 1.855469 C 19.058594 2.558594 19.457031 3.511719 19.457031 4.507812 L 19.457031 7.011719 C 19.457031 8.003906 19.058594 8.960938 18.355469 9.664062 C 17.652344 10.367188 16.699219 10.761719 15.707031 10.761719 L 4.089844 10.761719 C 3.09375 10.761719 2.140625 10.367188 1.4375 9.664062 C 0.734375 8.960938 0.339844 8.003906 0.339844 7.011719 L 0.339844 4.507812 C 0.339844 3.511719 0.734375 2.558594 1.4375 1.855469 C 2.140625 1.152344 3.09375 0.757812 4.089844 0.757812 Z M 4.089844 0.757812 " clip-rule="nonzero"></path></clipPath><clipPath id="0a3a43a38c"><rect x="0" width="20" y="0" height="11"></rect></clipPath><clipPath id="efb0738291"><path d="M 170 165 L 189 165 L 189 184 L 170 184 Z M 170 165 " clip-rule="nonzero"></path></clipPath><clipPath id="4552b14526"><path d="M 166.089844 170.785156 L 176.664062 161.234375 L 192.75 179.046875 L 182.175781 188.597656 Z M 166.089844 170.785156 " clip-rule="nonzero"></path></clipPath><clipPath id="f6bd898825"><path d="M 166.089844 170.785156 L 176.664062 161.234375 L 192.75 179.046875 L 182.175781 188.597656 Z M 166.089844 170.785156 " clip-rule="nonzero"></path></clipPath><clipPath id="SvgjsClipPath1030"><rect width="1000" height="1000" x="0" y="0" rx="500" ry="500"></rect></clipPath></defs><rect x="-37.5" width="450" fill="#ffffff" y="-37.499999" height="449.999989" fill-opacity="1"></rect><rect x="-37.5" width="450" fill="#0f172a" y="-37.499999" height="449.999989" fill-opacity="1"></rect><path stroke-linecap="butt" transform="matrix(0, 0.75, -0.75, 0, 123.302516, 106.112995)" fill="none" stroke-linejoin="miter" d="M 0.000381091 1.002314 L 86.198303 1.002314 " stroke="#a52626" stroke-width="2" stroke-opacity="1" stroke-miterlimit="4"></path><path stroke-linecap="butt" transform="matrix(0, 0.75, -0.75, 0, 145.480101, 121.557347)" fill="none" stroke-linejoin="miter" d="M 0.00166204 0.99951 L 65.605833 0.99951 " stroke="#a52626" stroke-width="2" stroke-opacity="1" stroke-miterlimit="4"></path><path stroke-linecap="butt" transform="matrix(0, 0.75, -0.75, 0, 166.015657, 130.756412)" fill="none" stroke-linejoin="miter" d="M 0.00186705 1.000042 L 53.340412 1.000042 " stroke="#a52626" stroke-width="2" stroke-opacity="1" stroke-miterlimit="4"></path><path stroke-linecap="butt" transform="matrix(0, 0.75, -0.75, 0, 188.197156, 134.368746)" fill="none" stroke-linejoin="miter" d="M -0.00207744 1.002458 L 48.523967 1.002458 " stroke="#a52626" stroke-width="2" stroke-opacity="1" stroke-miterlimit="4"></path><path stroke-linecap="butt" transform="matrix(0, 0.75, -0.75, 0, 210.372763, 130.756412)" fill="none" stroke-linejoin="miter" d="M 0.00186705 1.002226 L 53.340412 1.002226 " stroke="#a52626" stroke-width="2" stroke-opacity="1" stroke-miterlimit="4"></path><path stroke-linecap="butt" transform="matrix(0.000000001309, 0.75, -0.75, 0.000000001309, 230.908612, 121.557347)" fill="none" stroke-linejoin="miter" d="M 0.00166204 0.997941 L 65.605833 0.997941 " stroke="#a52626" stroke-width="2" stroke-opacity="1" stroke-miterlimit="4"></path><path stroke-linecap="butt" transform="matrix(0, 0.75, -0.75, 0, 251.445281, 106.112995)" fill="none" stroke-linejoin="miter" d="M 0.000381091 0.999958 L 86.198303 0.999958 " stroke="#a52626" stroke-width="2" stroke-opacity="1" stroke-miterlimit="4"></path><path stroke-linecap="butt" transform="matrix(0, 0.75, -0.75, 0, 304.366302, 106.112995)" fill="none" stroke-linejoin="miter" d="M 0.000381091 0.99882 L 86.198303 0.99882 " stroke="#a52626" stroke-width="2" stroke-opacity="1" stroke-miterlimit="4"></path><path stroke-linecap="butt" transform="matrix(0.000000001309, 0.75, -0.75, 0.000000001309, 326.543889, 121.557347)" fill="none" stroke-linejoin="miter" d="M 0.00166204 1.001228 L 65.605833 1.001228 " stroke="#a52626" stroke-width="2" stroke-opacity="1" stroke-miterlimit="4"></path><path stroke-linecap="butt" transform="matrix(0, 0.75, -0.75, 0, 347.079445, 130.756412)" fill="none" stroke-linejoin="miter" d="M 0.00186705 1.00176 L 53.340412 1.00176 " stroke="#a52626" stroke-width="2" stroke-opacity="1" stroke-miterlimit="4"></path><path stroke-linecap="butt" transform="matrix(0, 0.75, -0.75, 0, 369.260956, 134.368746)" fill="none" stroke-linejoin="miter" d="M -0.00207744 0.998983 L 48.523967 0.998983 " stroke="#a52626" stroke-width="2" stroke-opacity="1" stroke-miterlimit="4"></path><path stroke-linecap="butt" transform="matrix(0, 0.75, -0.75, 0, 7.352206, 134.368746)" fill="none" stroke-linejoin="miter" d="M -0.00207744 1.000858 L 48.523967 1.000858 " stroke="#a52626" stroke-width="2" stroke-opacity="1" stroke-miterlimit="4"></path><path stroke-linecap="butt" transform="matrix(0, 0.75, -0.75, 0, 29.527819, 130.756412)" fill="none" stroke-linejoin="miter" d="M 0.00186705 1.000634 L 53.340412 1.000634 " stroke="#a52626" stroke-width="2" stroke-opacity="1" stroke-miterlimit="4"></path><path stroke-linecap="butt" transform="matrix(0.000000001309, 0.75, -0.75, 0.000000001309, 50.06367, 121.557347)" fill="none" stroke-linejoin="miter" d="M 0.00166204 1.00156 L 65.605833 1.00156 " stroke="#a52626" stroke-width="2" stroke-opacity="1" stroke-miterlimit="4"></path><path stroke-linecap="butt" transform="matrix(0, 0.75, -0.75, 0, 70.60032, 106.112995)" fill="none" stroke-linejoin="miter" d="M 0.000381091 0.998343 L 86.198303 0.998343 " stroke="#a52626" stroke-width="2" stroke-opacity="1" stroke-miterlimit="4"></path><path stroke-linecap="butt" transform="matrix(0.75, 0, 0, 0.75, -21.996287, 168.507791)" fill="none" stroke-linejoin="miter" d="M 0.000258114 3.000029 L 547.620086 3.000029 " stroke="#ff3131" stroke-width="6" stroke-opacity="1" stroke-miterlimit="4"></path><path stroke-linecap="butt" transform="matrix(0.75, 0, 0, 0.75, -21.996287, 195.88011)" fill="none" stroke-linejoin="miter" d="M 0.000258114 2.998395 L 547.620086 2.998395 " stroke="#ff3131" stroke-width="6" stroke-opacity="1" stroke-miterlimit="4"></path><path stroke-linecap="butt" transform="matrix(0, 0.75, -0.75, 0, 283.997035, 81.090287)" fill="none" stroke-linejoin="miter" d="M -0.000591633 8.001256 L 258.228592 8.001256 " stroke="#ff3131" stroke-width="16" stroke-opacity="1" stroke-miterlimit="4"></path><path stroke-linecap="butt" transform="matrix(0.75, 0, 0, 0.75, 99.59816, 80.547453)" fill="none" stroke-linejoin="miter" d="M 2.322246 1.900271 C 78.811834 95.29611 155.301422 95.29611 231.791011 1.900271 " stroke="#ff3131" stroke-width="6" stroke-opacity="1" stroke-miterlimit="4"></path><path stroke-linecap="butt" transform="matrix(0.75, 0, 0, 0.75, 280.661938, 80.547453)" fill="none" stroke-linejoin="miter" d="M 2.320541 1.900271 C 78.810129 95.29611 155.299718 95.29611 231.794514 1.900271 " stroke="#ff3131" stroke-width="6" stroke-opacity="1" stroke-miterlimit="4"></path><path stroke-linecap="butt" transform="matrix(0.75, 0, 0, 0.75, -81.246794, 80.547453)" fill="none" stroke-linejoin="miter" d="M 2.318642 1.900271 C 78.813439 95.29611 155.303027 95.29611 231.792616 1.900271 " stroke="#ff3131" stroke-width="6" stroke-opacity="1" stroke-miterlimit="4"></path><g clip-path="url(#662491adab)"><g clip-path="url(#fc21816abb)"><g transform="matrix(1, 0, 0, 1, 268, 269)"><g clip-path="url(#c2efd2205e)"><g clip-path="url(#801722db5a)"><g clip-path="url(#5abd5b1082)"><path fill="#ffffff" d="M 0.445312 0.757812 L 19.554688 0.757812 L 19.554688 10.761719 L 0.445312 10.761719 Z M 0.445312 0.757812 " fill-opacity="1" fill-rule="nonzero"></path></g></g></g></g></g></g><path stroke-linecap="butt" transform="matrix(0.75, 0, 0, 0.75, 70.617005, 304.510996)" fill="none" stroke-linejoin="miter" d="M 0.000243783 3.000964 L 311.687764 3.000964 " stroke="#5170ff" stroke-width="6" stroke-opacity="1" stroke-miterlimit="4"></path><g clip-path="url(#93403e9c73)"><g transform="matrix(1, 0, 0, 1, 108, 180)"><g clip-path="url(#fcceb1be04)"><g clip-path="url(#69a2a29b57)"><path fill="#e5e5e3" d="M 13.734375 13.074219 C 14.59375 13.074219 15.257812 13.734375 15.257812 14.597656 C 15.257812 15.457031 14.59375 16.121094 13.734375 16.121094 C 12.871094 16.121094 12.207031 15.457031 12.207031 14.597656 C 12.207031 13.800781 12.871094 13.074219 13.734375 13.074219 Z M 13.734375 15.523438 C 14.195312 15.523438 14.59375 15.125 14.59375 14.664062 C 14.59375 14.199219 14.195312 13.800781 13.734375 13.800781 C 13.269531 13.800781 12.871094 14.199219 12.871094 14.664062 C 12.871094 15.125 13.269531 15.523438 13.734375 15.523438 Z M 13.734375 15.523438 " fill-opacity="1" fill-rule="nonzero"></path></g><g clip-path="url(#34f7973607)"><path fill="#e5e5e3" d="M 5.914062 13.074219 C 6.777344 13.074219 7.4375 13.734375 7.4375 14.597656 C 7.4375 15.457031 6.777344 16.121094 5.914062 16.121094 C 5.054688 16.121094 4.390625 15.457031 4.390625 14.597656 C 4.390625 13.800781 5.121094 13.074219 5.914062 13.074219 Z M 5.914062 15.523438 C 6.378906 15.523438 6.777344 15.125 6.777344 14.664062 C 6.777344 14.199219 6.378906 13.800781 5.914062 13.800781 C 5.453125 13.800781 5.054688 14.199219 5.054688 14.664062 C 5.054688 15.125 5.453125 15.523438 5.914062 15.523438 Z M 5.914062 15.523438 " fill-opacity="1" fill-rule="nonzero"></path></g><g clip-path="url(#58bde0401e)"><path fill="#e5e5e3" d="M 49.371094 13.074219 C 50.234375 13.074219 50.894531 13.734375 50.894531 14.597656 C 50.894531 15.457031 50.234375 16.121094 49.371094 16.121094 C 48.511719 16.121094 47.847656 15.457031 47.847656 14.597656 C 47.78125 13.800781 48.511719 13.074219 49.371094 13.074219 Z M 49.371094 15.523438 C 49.835938 15.523438 50.234375 15.125 50.234375 14.664062 C 50.234375 14.199219 49.835938 13.800781 49.371094 13.800781 C 48.90625 13.800781 48.511719 14.199219 48.511719 14.664062 C 48.445312 15.125 48.839844 15.523438 49.371094 15.523438 Z M 49.371094 15.523438 " fill-opacity="1" fill-rule="nonzero"></path></g><g clip-path="url(#044efee253)"><path fill="#e5e5e3" d="M 57.121094 13.074219 C 57.984375 13.074219 58.644531 13.734375 58.644531 14.597656 C 58.644531 15.457031 57.984375 16.121094 57.121094 16.121094 C 56.261719 16.121094 55.597656 15.457031 55.597656 14.597656 C 55.597656 13.800781 56.328125 13.074219 57.121094 13.074219 Z M 57.121094 15.523438 C 57.585938 15.523438 57.984375 15.125 57.984375 14.664062 C 57.984375 14.199219 57.585938 13.800781 57.121094 13.800781 C 56.660156 13.800781 56.261719 14.199219 56.261719 14.664062 C 56.261719 15.125 56.660156 15.523438 57.121094 15.523438 Z M 57.121094 15.523438 " fill-opacity="1" fill-rule="nonzero"></path></g><path fill="#e5e5e3" d="M 19.5625 13.007812 C 19.296875 13.007812 19.097656 12.808594 19.097656 12.542969 L 19.097656 7.90625 C 19.097656 7.640625 19.296875 7.441406 19.5625 7.441406 C 19.828125 7.441406 20.027344 7.640625 20.027344 7.90625 L 20.027344 12.542969 C 20.027344 12.808594 19.828125 13.007812 19.5625 13.007812 Z M 19.5625 13.007812 " fill-opacity="1" fill-rule="nonzero"></path><path fill="#e5e5e3" d="M 17.441406 13.007812 C 17.175781 13.007812 16.976562 12.808594 16.976562 12.542969 L 16.976562 7.90625 C 16.976562 7.640625 17.175781 7.441406 17.441406 7.441406 C 17.707031 7.441406 17.90625 7.640625 17.90625 7.90625 L 17.90625 12.542969 C 17.90625 12.808594 17.707031 13.007812 17.441406 13.007812 Z M 17.441406 13.007812 " fill-opacity="1" fill-rule="nonzero"></path><path fill="#e5e5e3" d="M 43.542969 13.007812 C 43.476562 13.007812 43.476562 13.007812 43.476562 13.007812 C 43.210938 13.007812 43.011719 12.808594 43.011719 12.542969 L 43.011719 7.90625 C 43.011719 7.640625 43.210938 7.441406 43.476562 7.441406 C 43.476562 7.441406 43.476562 7.441406 43.542969 7.441406 C 43.542969 7.441406 43.542969 7.441406 43.609375 7.441406 C 43.875 7.441406 44.070312 7.640625 44.070312 7.90625 L 44.070312 12.542969 C 44.003906 12.808594 43.808594 13.007812 43.542969 13.007812 Z M 43.542969 13.007812 " fill-opacity="1" fill-rule="nonzero"></path><path fill="#e5e5e3" d="M 45.726562 13.007812 C 45.660156 13.007812 45.660156 13.007812 45.726562 13.007812 C 45.660156 13.007812 45.660156 13.007812 45.660156 13.007812 C 45.398438 13.007812 45.199219 12.808594 45.199219 12.542969 L 45.199219 7.90625 C 45.199219 7.640625 45.398438 7.441406 45.660156 7.441406 C 45.660156 7.441406 45.660156 7.441406 45.726562 7.441406 C 45.726562 7.441406 45.726562 7.441406 45.792969 7.441406 C 46.058594 7.441406 46.257812 7.640625 46.257812 7.90625 L 46.257812 12.542969 C 46.191406 12.808594 45.992188 13.007812 45.726562 13.007812 Z M 45.726562 13.007812 " fill-opacity="1" fill-rule="nonzero"></path><g clip-path="url(#43aa2c8921)"><path fill="#e5e5e3" d="M 2.40625 0.488281 C 2.472656 0.488281 2.605469 0.488281 2.867188 0.488281 C 3.796875 0.488281 57.519531 0.488281 58.378906 0.488281 C 62.554688 0.488281 65.867188 9.695312 66.328125 11.351562 C 66.527344 12.011719 66.460938 12.609375 66.132812 13.074219 C 65.667969 13.933594 64.410156 14.332031 63.480469 14.464844 C 62.089844 14.664062 61.691406 14.730469 60.101562 14.730469 C 59.707031 14.730469 59.507812 14.730469 59.507812 14.730469 C 59.375 14.730469 59.109375 14.597656 59.109375 14.132812 C 59.109375 14.066406 59.109375 12.609375 57.917969 12.609375 L 48.710938 12.609375 C 47.515625 12.609375 47.515625 14.066406 47.515625 14.132812 C 47.515625 14.597656 47.25 14.730469 47.121094 14.730469 L 17.042969 14.730469 C 16.648438 14.730469 16.316406 14.730469 16.316406 14.730469 C 16.183594 14.730469 15.917969 14.597656 15.917969 14.132812 C 15.917969 14.066406 15.917969 12.609375 14.726562 12.609375 L 3 12.609375 C 2.867188 12.609375 2.667969 12.609375 2.539062 12.542969 C 2.207031 12.476562 2.207031 12.277344 2.207031 12.144531 L 2.207031 1.28125 C 2.207031 1.148438 2.207031 0.949219 2.273438 0.816406 C 2.140625 0.488281 2.339844 0.488281 2.40625 0.488281 Z M 60.367188 7.375 L 63.878906 8.632812 C 63.679688 8.304688 61.691406 4.527344 61.296875 3.796875 L 60.367188 3.796875 Z M 21.945312 2.671875 C 21.945312 2.40625 21.746094 2.207031 21.484375 2.207031 L 16.914062 2.207031 C 16.648438 2.207031 16.449219 2.40625 16.449219 2.671875 L 16.449219 4.527344 C 16.449219 4.792969 16.648438 4.992188 16.914062 4.992188 L 21.484375 4.992188 C 21.746094 4.992188 21.945312 4.792969 21.945312 4.527344 Z M 28.105469 2.671875 C 28.105469 2.40625 27.910156 2.207031 27.644531 2.207031 L 23.074219 2.207031 C 22.808594 2.207031 22.609375 2.40625 22.609375 2.671875 L 22.609375 4.527344 C 22.609375 4.792969 22.808594 4.992188 23.074219 4.992188 L 27.644531 4.992188 C 27.910156 4.992188 28.105469 4.792969 28.105469 4.527344 Z M 34.335938 2.671875 C 34.335938 2.40625 34.136719 2.207031 33.871094 2.207031 L 29.300781 2.207031 C 29.035156 2.207031 28.835938 2.40625 28.835938 2.671875 L 28.835938 4.527344 C 28.835938 4.792969 29.035156 4.992188 29.300781 4.992188 L 33.871094 4.992188 C 34.136719 4.992188 34.335938 4.792969 34.335938 4.527344 Z M 40.496094 2.671875 C 40.496094 2.40625 40.296875 2.207031 40.03125 2.207031 L 35.460938 2.207031 C 35.195312 2.207031 34.996094 2.40625 34.996094 2.671875 L 34.996094 4.527344 C 34.996094 4.792969 35.195312 4.992188 35.460938 4.992188 L 40.03125 4.992188 C 40.296875 4.992188 40.496094 4.792969 40.496094 4.527344 Z M 46.722656 2.671875 C 46.722656 2.40625 46.523438 2.207031 46.257812 2.207031 L 41.6875 2.207031 C 41.421875 2.207031 41.222656 2.40625 41.222656 2.671875 L 41.222656 4.527344 C 41.222656 4.792969 41.421875 4.992188 41.6875 4.992188 L 46.257812 4.992188 C 46.523438 4.992188 46.722656 4.792969 46.722656 4.527344 Z M 48.578125 9.429688 C 48.578125 9.695312 48.777344 9.894531 49.039062 9.894531 L 51.691406 9.894531 C 51.957031 9.894531 52.152344 9.695312 52.152344 9.429688 L 52.152344 6.910156 C 52.152344 6.648438 51.957031 6.449219 51.691406 6.449219 L 49.039062 6.449219 C 48.777344 6.449219 48.578125 6.648438 48.578125 6.910156 Z M 44.667969 14 L 46.65625 14 L 46.65625 6.449219 L 44.667969 6.449219 Z M 42.480469 14 L 44.46875 14 L 44.46875 6.449219 L 42.480469 6.449219 Z M 34.996094 12.542969 C 34.996094 12.808594 35.195312 13.007812 35.460938 13.007812 L 40.03125 13.007812 C 40.296875 13.007812 40.496094 12.808594 40.496094 12.542969 L 40.496094 10.027344 C 40.496094 9.761719 40.296875 9.5625 40.03125 9.5625 L 35.460938 9.5625 C 35.195312 9.5625 34.996094 9.761719 34.996094 10.027344 Z M 28.835938 12.542969 C 28.835938 12.808594 29.035156 13.007812 29.300781 13.007812 L 33.871094 13.007812 C 34.136719 13.007812 34.335938 12.808594 34.335938 12.542969 L 34.335938 10.027344 C 34.335938 9.761719 34.136719 9.5625 33.871094 9.5625 L 29.300781 9.5625 C 29.035156 9.5625 28.835938 9.761719 28.835938 10.027344 Z M 22.609375 12.542969 C 22.609375 12.808594 22.808594 13.007812 23.074219 13.007812 L 27.644531 13.007812 C 27.910156 13.007812 28.105469 12.808594 28.105469 12.542969 L 28.105469 10.027344 C 28.105469 9.761719 27.910156 9.5625 27.644531 9.5625 L 23.074219 9.5625 C 22.808594 9.5625 22.609375 9.761719 22.609375 10.027344 Z M 18.632812 14 L 20.621094 14 L 20.621094 6.449219 L 18.632812 6.449219 Z M 16.449219 14 L 18.4375 14 L 18.4375 6.449219 L 16.449219 6.449219 Z M 10.882812 9.429688 C 10.882812 9.695312 11.082031 9.894531 11.347656 9.894531 L 13.996094 9.894531 C 14.261719 9.894531 14.460938 9.695312 14.460938 9.429688 L 14.460938 6.910156 C 14.460938 6.648438 14.261719 6.449219 13.996094 6.449219 L 11.347656 6.449219 C 11.082031 6.449219 10.882812 6.648438 10.882812 6.910156 Z M 4.722656 9.429688 C 4.722656 9.695312 4.921875 9.894531 5.1875 9.894531 L 9.757812 9.894531 C 10.023438 9.894531 10.222656 9.695312 10.222656 9.429688 L 10.222656 6.910156 C 10.222656 6.648438 10.023438 6.449219 9.757812 6.449219 L 5.1875 6.449219 C 4.921875 6.449219 4.722656 6.648438 4.722656 6.910156 Z M 3.066406 5.984375 L 59.308594 5.984375 L 59.308594 5.71875 L 3.066406 5.71875 Z M 3.066406 5.984375 " fill-opacity="1" fill-rule="nonzero"></path></g><g clip-path="url(#730be9c5bc)"><path fill="#e5e5e3" d="M 1.742188 0.949219 L 1.410156 0.949219 L 1.410156 12.210938 L 1.742188 12.210938 Z M 1.742188 0.949219 " fill-opacity="1" fill-rule="nonzero"></path></g><path fill="#e5e5e3" d="M 55.398438 13.667969 C 55.265625 13.867188 55.136719 14.132812 55.136719 14.464844 L 55.136719 15.191406 C 55.136719 15.324219 55.070312 15.390625 54.9375 15.390625 L 51.558594 15.390625 C 51.425781 15.390625 51.359375 15.324219 51.359375 15.191406 L 51.359375 14.464844 C 51.359375 14.199219 51.226562 13.933594 51.09375 13.667969 L 51.09375 13.335938 L 55.332031 13.335938 L 55.332031 13.667969 Z M 55.398438 13.667969 " fill-opacity="1" fill-rule="nonzero"></path><path fill="#e5e5e3" d="M 11.945312 13.667969 C 11.8125 13.867188 11.679688 14.132812 11.679688 14.464844 L 11.679688 15.191406 C 11.679688 15.324219 11.613281 15.390625 11.480469 15.390625 L 8.101562 15.390625 C 7.96875 15.390625 7.902344 15.324219 7.902344 15.191406 L 7.902344 14.464844 C 7.902344 14.199219 7.769531 13.933594 7.636719 13.667969 L 7.636719 13.335938 L 11.878906 13.335938 L 11.878906 13.667969 Z M 11.945312 13.667969 " fill-opacity="1" fill-rule="nonzero"></path></g></g></g><path fill="#e5e5e3" d="M 1.894531 193.054688 C 1.042969 193.054688 0.386719 193.777344 0.386719 194.632812 C 0.386719 195.488281 1.042969 196.210938 1.894531 196.210938 C 2.75 196.210938 3.40625 195.488281 3.40625 194.632812 C 3.40625 193.714844 2.75 193.054688 1.894531 193.054688 Z M 1.894531 195.488281 C 1.4375 195.488281 1.042969 195.09375 1.042969 194.632812 C 1.042969 194.171875 1.4375 193.777344 1.894531 193.777344 C 2.355469 193.777344 2.75 194.171875 2.75 194.632812 C 2.75 195.09375 2.421875 195.488281 1.894531 195.488281 Z M 1.894531 195.488281 " fill-opacity="1" fill-rule="nonzero"></path><path fill="#e5e5e3" d="M 7.675781 192.992188 C 7.941406 192.992188 8.136719 192.792969 8.136719 192.53125 L 8.136719 187.929688 C 8.136719 187.667969 7.941406 187.472656 7.675781 187.472656 C 7.414062 187.472656 7.21875 187.667969 7.21875 187.929688 L 7.21875 192.53125 C 7.21875 192.792969 7.414062 192.992188 7.675781 192.992188 Z M 7.675781 192.992188 " fill-opacity="1" fill-rule="nonzero"></path><path fill="#e5e5e3" d="M 5.574219 192.992188 C 5.839844 192.992188 6.035156 192.792969 6.035156 192.53125 L 6.035156 187.929688 C 6.035156 187.667969 5.839844 187.472656 5.574219 187.472656 C 5.3125 187.472656 5.113281 187.667969 5.113281 187.929688 L 5.113281 192.53125 C 5.113281 192.792969 5.3125 192.992188 5.574219 192.992188 Z M 5.574219 192.992188 " fill-opacity="1" fill-rule="nonzero"></path><path fill="#e5e5e3" d="M 37.109375 193.054688 C 36.257812 193.054688 35.601562 193.714844 35.601562 194.566406 C 35.601562 195.421875 36.257812 196.078125 37.109375 196.078125 C 37.964844 196.078125 38.621094 195.421875 38.621094 194.566406 C 38.621094 193.777344 37.964844 193.054688 37.109375 193.054688 Z M 37.109375 195.488281 C 36.652344 195.488281 36.257812 195.09375 36.257812 194.632812 C 36.257812 194.171875 36.652344 193.777344 37.109375 193.777344 C 37.570312 193.777344 37.964844 194.171875 37.964844 194.632812 C 37.964844 195.09375 37.570312 195.488281 37.109375 195.488281 Z M 37.109375 195.488281 " fill-opacity="1" fill-rule="nonzero"></path><path fill="#e5e5e3" d="M 44.863281 193.054688 C 44.007812 193.054688 43.351562 193.714844 43.351562 194.566406 C 43.351562 195.421875 44.007812 196.078125 44.863281 196.078125 C 45.71875 196.078125 46.375 195.421875 46.375 194.566406 C 46.375 193.777344 45.652344 193.054688 44.863281 193.054688 Z M 44.863281 195.488281 C 44.402344 195.488281 44.007812 195.09375 44.007812 194.632812 C 44.007812 194.171875 44.402344 193.777344 44.863281 193.777344 C 45.324219 193.777344 45.71875 194.171875 45.71875 194.632812 C 45.71875 195.09375 45.324219 195.488281 44.863281 195.488281 Z M 44.863281 195.488281 " fill-opacity="1" fill-rule="nonzero"></path><path fill="#e5e5e3" d="M 31.328125 192.992188 C 31.59375 192.992188 31.789062 192.792969 31.789062 192.53125 L 31.789062 187.929688 C 31.789062 187.667969 31.59375 187.472656 31.328125 187.472656 C 31.066406 187.472656 30.871094 187.667969 30.871094 187.929688 L 30.871094 192.53125 C 30.804688 192.792969 31.066406 192.992188 31.328125 192.992188 Z M 31.328125 192.992188 " fill-opacity="1" fill-rule="nonzero"></path><path fill="#e5e5e3" d="M 33.433594 192.992188 C 33.695312 192.992188 33.890625 192.792969 33.890625 192.53125 L 33.890625 187.929688 C 33.890625 187.667969 33.695312 187.472656 33.433594 187.472656 C 33.167969 187.472656 32.972656 187.667969 32.972656 187.929688 L 32.972656 192.53125 C 32.972656 192.792969 33.167969 192.992188 33.433594 192.992188 Z M 33.433594 192.992188 " fill-opacity="1" fill-rule="nonzero"></path><path fill="#e5e5e3" d="M 48.347656 180.574219 C 48.28125 180.574219 48.148438 180.574219 47.886719 180.574219 C 47.425781 180.574219 33.433594 180.574219 19.636719 180.574219 C 5.773438 180.574219 -8.351562 180.574219 -8.8125 180.574219 C -9.074219 180.574219 -9.273438 180.574219 -9.273438 180.574219 C -9.40625 180.574219 -9.601562 180.640625 -9.667969 180.902344 C -9.734375 181.03125 -9.734375 181.230469 -9.734375 181.363281 L -9.734375 192.203125 C -9.734375 192.332031 -9.667969 192.53125 -9.40625 192.597656 C -9.273438 192.660156 -9.074219 192.660156 -8.945312 192.660156 L 2.683594 192.660156 C 3.867188 192.660156 3.867188 194.109375 3.867188 194.171875 C 3.867188 194.632812 4.128906 194.765625 4.261719 194.765625 C 4.261719 194.765625 4.65625 194.765625 4.984375 194.765625 L 33.890625 194.765625 C 34.285156 194.765625 34.613281 194.765625 34.613281 194.765625 C 34.746094 194.765625 35.007812 194.632812 35.007812 194.171875 C 35.007812 194.109375 35.007812 192.660156 36.191406 192.660156 L 47.820312 192.660156 C 47.953125 192.660156 48.148438 192.660156 48.28125 192.597656 C 48.609375 192.53125 48.609375 192.332031 48.609375 192.203125 L 48.609375 181.363281 C 48.609375 181.230469 48.609375 181.03125 48.542969 180.902344 C 48.609375 180.574219 48.410156 180.574219 48.347656 180.574219 Z M 28.964844 182.742188 C 28.964844 182.480469 29.160156 182.28125 29.425781 182.28125 L 33.957031 182.28125 C 34.21875 182.28125 34.417969 182.480469 34.417969 182.742188 L 34.417969 184.582031 C 34.417969 184.84375 34.21875 185.039062 33.957031 185.039062 L 29.425781 185.039062 C 29.160156 185.039062 28.964844 184.84375 28.964844 184.582031 Z M 22.855469 182.742188 C 22.855469 182.480469 23.050781 182.28125 23.3125 182.28125 L 27.847656 182.28125 C 28.109375 182.28125 28.308594 182.480469 28.308594 182.742188 L 28.308594 184.582031 C 28.308594 184.84375 28.109375 185.039062 27.847656 185.039062 L 23.3125 185.039062 C 23.050781 185.039062 22.855469 184.84375 22.855469 184.582031 Z M 16.875 182.742188 C 16.875 182.480469 17.074219 182.28125 17.335938 182.28125 L 21.671875 182.28125 C 21.933594 182.28125 22.132812 182.480469 22.132812 182.742188 L 22.132812 184.582031 C 22.132812 184.84375 21.933594 185.039062 21.671875 185.039062 L 17.335938 185.039062 C 17.074219 185.039062 16.875 184.84375 16.875 184.582031 Z M 10.699219 182.742188 C 10.699219 182.480469 10.898438 182.28125 11.160156 182.28125 L 15.691406 182.28125 C 15.957031 182.28125 16.152344 182.480469 16.152344 182.742188 L 16.152344 184.582031 C 16.152344 184.84375 15.957031 185.039062 15.691406 185.039062 L 11.160156 185.039062 C 10.898438 185.039062 10.699219 184.84375 10.699219 184.582031 Z M 4.589844 182.742188 C 4.589844 182.480469 4.785156 182.28125 5.050781 182.28125 L 9.582031 182.28125 C 9.84375 182.28125 10.042969 182.480469 10.042969 182.742188 L 10.042969 184.582031 C 10.042969 184.84375 9.84375 185.039062 9.582031 185.039062 L 5.050781 185.039062 C 4.785156 185.039062 4.589844 184.84375 4.589844 184.582031 Z M -1.585938 189.441406 C -1.585938 189.707031 -1.785156 189.902344 -2.046875 189.902344 L -6.578125 189.902344 C -6.84375 189.902344 -7.039062 189.707031 -7.039062 189.441406 L -7.039062 186.945312 C -7.039062 186.683594 -6.84375 186.484375 -6.578125 186.484375 L -2.046875 186.484375 C -1.785156 186.484375 -1.585938 186.683594 -1.585938 186.945312 Z M 2.683594 189.441406 C 2.683594 189.707031 2.488281 189.902344 2.222656 189.902344 L -0.402344 189.902344 C -0.667969 189.902344 -0.863281 189.707031 -0.863281 189.441406 L -0.863281 186.945312 C -0.863281 186.683594 -0.667969 186.484375 -0.402344 186.484375 L 2.222656 186.484375 C 2.488281 186.484375 2.683594 186.683594 2.683594 186.945312 Z M 6.5625 193.976562 L 4.589844 193.976562 L 4.589844 186.484375 L 6.5625 186.484375 Z M 8.792969 193.976562 L 6.824219 193.976562 L 6.824219 186.484375 L 8.792969 186.484375 Z M 16.152344 192.53125 C 16.152344 192.792969 15.957031 192.992188 15.691406 192.992188 L 11.160156 192.992188 C 10.898438 192.992188 10.699219 192.792969 10.699219 192.53125 L 10.699219 190.035156 C 10.699219 189.769531 10.898438 189.574219 11.160156 189.574219 L 15.691406 189.574219 C 15.957031 189.574219 16.152344 189.769531 16.152344 190.035156 Z M 22.132812 192.53125 C 22.132812 192.792969 21.933594 192.992188 21.671875 192.992188 L 17.269531 192.992188 C 17.007812 192.992188 16.808594 192.792969 16.808594 192.53125 L 16.808594 190.035156 C 16.808594 189.769531 17.007812 189.574219 17.269531 189.574219 L 21.605469 189.574219 C 21.867188 189.574219 22.066406 189.769531 22.066406 190.035156 L 22.066406 192.53125 Z M 28.308594 192.53125 C 28.308594 192.792969 28.109375 192.992188 27.847656 192.992188 L 23.3125 192.992188 C 23.050781 192.992188 22.855469 192.792969 22.855469 192.53125 L 22.855469 190.035156 C 22.855469 189.769531 23.050781 189.574219 23.3125 189.574219 L 27.847656 189.574219 C 28.109375 189.574219 28.308594 189.769531 28.308594 190.035156 Z M 32.183594 193.976562 L 30.210938 193.976562 L 30.210938 186.484375 L 32.183594 186.484375 Z M 34.417969 193.976562 L 32.445312 193.976562 L 32.445312 186.484375 L 34.417969 186.484375 Z M 39.871094 189.441406 C 39.871094 189.707031 39.671875 189.902344 39.410156 189.902344 L 36.78125 189.902344 C 36.519531 189.902344 36.324219 189.707031 36.324219 189.441406 L 36.324219 186.945312 C 36.324219 186.683594 36.519531 186.484375 36.78125 186.484375 L 39.410156 186.484375 C 39.671875 186.484375 39.871094 186.683594 39.871094 186.945312 Z M 46.046875 189.441406 C 46.046875 189.707031 45.847656 189.902344 45.585938 189.902344 L 41.054688 189.902344 C 40.789062 189.902344 40.59375 189.707031 40.59375 189.441406 L 40.59375 186.945312 C 40.59375 186.683594 40.789062 186.484375 41.054688 186.484375 L 45.585938 186.484375 C 45.847656 186.484375 46.046875 186.683594 46.046875 186.945312 Z M 47.625 186.027344 L -8.683594 186.027344 L -8.683594 185.761719 L 47.625 185.761719 Z M 47.625 186.027344 " fill-opacity="1" fill-rule="nonzero"></path><path fill="#e5e5e3" d="M 48.9375 181.03125 L 49.265625 181.03125 L 49.265625 192.203125 L 48.9375 192.203125 Z M 48.9375 181.03125 " fill-opacity="1" fill-rule="nonzero"></path><path fill="#e5e5e3" d="M -4.082031 193.648438 C -3.953125 193.84375 -3.820312 194.109375 -3.820312 194.4375 L -3.820312 195.160156 C -3.820312 195.289062 -3.753906 195.355469 -3.621094 195.355469 L -0.273438 195.355469 C -0.140625 195.355469 -0.0742188 195.289062 -0.0742188 195.160156 L -0.0742188 194.4375 C -0.0742188 194.171875 0.0546875 193.910156 0.1875 193.648438 L 0.1875 193.320312 L -4.015625 193.320312 L -4.015625 193.648438 Z M -4.082031 193.648438 " fill-opacity="1" fill-rule="nonzero"></path><path fill="#e5e5e3" d="M 38.820312 193.648438 C 38.949219 193.84375 39.082031 194.109375 39.082031 194.4375 L 39.082031 195.160156 C 39.082031 195.289062 39.148438 195.355469 39.277344 195.355469 L 42.628906 195.355469 C 42.761719 195.355469 42.828125 195.289062 42.828125 195.160156 L 42.828125 194.4375 C 42.828125 194.171875 42.957031 193.910156 43.089844 193.648438 L 43.089844 193.320312 L 38.886719 193.320312 L 38.886719 193.648438 Z M 38.820312 193.648438 " fill-opacity="1" fill-rule="nonzero"></path><g clip-path="url(#a4c22528a1)"><path fill="#e5e5e3" d="M 61.746094 192.90625 C 60.890625 192.90625 60.234375 193.628906 60.234375 194.484375 C 60.234375 195.335938 60.890625 196.058594 61.746094 196.058594 C 62.601562 196.058594 63.257812 195.335938 63.257812 194.484375 C 63.257812 193.5625 62.601562 192.90625 61.746094 192.90625 Z M 61.746094 195.335938 C 61.285156 195.335938 60.890625 194.941406 60.890625 194.484375 C 60.890625 194.023438 61.285156 193.628906 61.746094 193.628906 C 62.207031 193.628906 62.601562 194.023438 62.601562 194.484375 C 62.601562 194.941406 62.273438 195.335938 61.746094 195.335938 Z M 61.746094 195.335938 " fill-opacity="1" fill-rule="nonzero"></path></g><path fill="#e5e5e3" d="M 53.992188 192.90625 C 53.140625 192.90625 52.480469 193.5625 52.480469 194.417969 C 52.480469 195.269531 53.140625 195.929688 53.992188 195.929688 C 54.847656 195.929688 55.503906 195.269531 55.503906 194.417969 C 55.570312 193.628906 54.847656 192.90625 53.992188 192.90625 Z M 53.992188 195.335938 C 53.535156 195.335938 53.140625 194.941406 53.140625 194.484375 C 53.140625 194.023438 53.535156 193.628906 53.992188 193.628906 C 54.453125 193.628906 54.847656 194.023438 54.847656 194.484375 C 54.914062 194.941406 54.519531 195.335938 53.992188 195.335938 Z M 53.992188 195.335938 " fill-opacity="1" fill-rule="nonzero"></path><path fill="#e5e5e3" d="M 67.527344 192.839844 C 67.789062 192.839844 67.988281 192.644531 67.988281 192.378906 L 67.988281 187.78125 C 67.988281 187.519531 67.789062 187.320312 67.527344 187.320312 C 67.265625 187.320312 67.066406 187.519531 67.066406 187.78125 L 67.066406 192.378906 C 67.066406 192.644531 67.265625 192.839844 67.527344 192.839844 Z M 67.527344 192.839844 " fill-opacity="1" fill-rule="nonzero"></path><path fill="#e5e5e3" d="M 65.425781 192.839844 C 65.6875 192.839844 65.886719 192.644531 65.886719 192.378906 L 65.886719 187.78125 C 65.886719 187.519531 65.6875 187.320312 65.425781 187.320312 C 65.164062 187.320312 64.964844 187.519531 64.964844 187.78125 L 64.964844 192.378906 C 64.964844 192.644531 65.164062 192.839844 65.425781 192.839844 Z M 65.425781 192.839844 " fill-opacity="1" fill-rule="nonzero"></path><path fill="#e5e5e3" d="M 49.527344 180.882812 L 49.855469 180.882812 L 49.855469 192.050781 L 49.527344 192.050781 Z M 49.527344 180.882812 " fill-opacity="1" fill-rule="nonzero"></path><path fill="#e5e5e3" d="M 96.960938 192.90625 C 96.105469 192.90625 95.449219 193.5625 95.449219 194.417969 C 95.449219 195.269531 96.105469 195.929688 96.960938 195.929688 C 97.816406 195.929688 98.472656 195.269531 98.472656 194.417969 C 98.472656 193.628906 97.816406 192.90625 96.960938 192.90625 Z M 96.960938 195.335938 C 96.5 195.335938 96.105469 194.941406 96.105469 194.484375 C 96.105469 194.023438 96.5 193.628906 96.960938 193.628906 C 97.421875 193.628906 97.816406 194.023438 97.816406 194.484375 C 97.816406 194.941406 97.421875 195.335938 96.960938 195.335938 Z M 96.960938 195.335938 " fill-opacity="1" fill-rule="nonzero"></path><path fill="#e5e5e3" d="M 104.714844 192.90625 C 103.859375 192.90625 103.203125 193.5625 103.203125 194.417969 C 103.203125 195.269531 103.859375 195.929688 104.714844 195.929688 C 105.566406 195.929688 106.226562 195.269531 106.226562 194.417969 C 106.226562 193.628906 105.503906 192.90625 104.714844 192.90625 Z M 104.714844 195.335938 C 104.253906 195.335938 103.859375 194.941406 103.859375 194.484375 C 103.859375 194.023438 104.253906 193.628906 104.714844 193.628906 C 105.171875 193.628906 105.566406 194.023438 105.566406 194.484375 C 105.566406 194.941406 105.171875 195.335938 104.714844 195.335938 Z M 104.714844 195.335938 " fill-opacity="1" fill-rule="nonzero"></path><path fill="#e5e5e3" d="M 91.179688 192.839844 C 91.441406 192.839844 91.640625 192.644531 91.640625 192.378906 L 91.640625 187.78125 C 91.640625 187.519531 91.441406 187.320312 91.179688 187.320312 C 90.917969 187.320312 90.71875 187.519531 90.71875 187.78125 L 90.71875 192.378906 C 90.652344 192.644531 90.917969 192.839844 91.179688 192.839844 Z M 91.179688 192.839844 " fill-opacity="1" fill-rule="nonzero"></path><path fill="#e5e5e3" d="M 93.28125 192.839844 C 93.542969 192.839844 93.742188 192.644531 93.742188 192.378906 L 93.742188 187.78125 C 93.742188 187.519531 93.542969 187.320312 93.28125 187.320312 C 93.019531 187.320312 92.820312 187.519531 92.820312 187.78125 L 92.820312 192.378906 C 92.820312 192.644531 93.019531 192.839844 93.28125 192.839844 Z M 93.28125 192.839844 " fill-opacity="1" fill-rule="nonzero"></path><path fill="#e5e5e3" d="M 108.195312 180.421875 C 108.128906 180.421875 108 180.421875 107.734375 180.421875 C 107.277344 180.421875 93.28125 180.421875 79.484375 180.421875 C 65.621094 180.421875 51.496094 180.421875 51.035156 180.421875 C 50.773438 180.421875 50.578125 180.421875 50.578125 180.421875 C 50.445312 180.421875 50.25 180.488281 50.183594 180.75 C 50.117188 180.882812 50.117188 181.082031 50.117188 181.210938 L 50.117188 192.050781 C 50.117188 192.183594 50.183594 192.378906 50.445312 192.445312 C 50.578125 192.511719 50.773438 192.511719 50.90625 192.511719 L 62.535156 192.511719 C 63.71875 192.511719 63.71875 193.957031 63.71875 194.023438 C 63.71875 194.484375 63.980469 194.613281 64.109375 194.613281 C 64.109375 194.613281 64.503906 194.613281 64.832031 194.613281 L 93.742188 194.613281 C 94.136719 194.613281 94.464844 194.613281 94.464844 194.613281 C 94.597656 194.613281 94.859375 194.484375 94.859375 194.023438 C 94.859375 193.957031 94.859375 192.511719 96.042969 192.511719 L 107.671875 192.511719 C 107.800781 192.511719 108 192.511719 108.128906 192.445312 C 108.457031 192.378906 108.457031 192.183594 108.457031 192.050781 L 108.457031 181.210938 C 108.457031 181.082031 108.457031 180.882812 108.394531 180.75 C 108.457031 180.421875 108.261719 180.421875 108.195312 180.421875 Z M 88.8125 182.589844 C 88.8125 182.328125 89.011719 182.132812 89.273438 182.132812 L 93.808594 182.132812 C 94.070312 182.132812 94.265625 182.328125 94.265625 182.589844 L 94.265625 184.429688 C 94.265625 184.695312 94.070312 184.890625 93.808594 184.890625 L 89.273438 184.890625 C 89.011719 184.890625 88.8125 184.695312 88.8125 184.429688 Z M 82.703125 182.589844 C 82.703125 182.328125 82.902344 182.132812 83.164062 182.132812 L 87.699219 182.132812 C 87.960938 182.132812 88.15625 182.328125 88.15625 182.589844 L 88.15625 184.429688 C 88.15625 184.695312 87.960938 184.890625 87.699219 184.890625 L 83.164062 184.890625 C 82.902344 184.890625 82.703125 184.695312 82.703125 184.429688 Z M 76.726562 182.589844 C 76.726562 182.328125 76.921875 182.132812 77.183594 182.132812 L 81.523438 182.132812 C 81.785156 182.132812 81.980469 182.328125 81.980469 182.589844 L 81.980469 184.429688 C 81.980469 184.695312 81.785156 184.890625 81.523438 184.890625 L 77.183594 184.890625 C 76.921875 184.890625 76.726562 184.695312 76.726562 184.429688 Z M 70.550781 182.589844 C 70.550781 182.328125 70.746094 182.132812 71.007812 182.132812 L 75.542969 182.132812 C 75.804688 182.132812 76.003906 182.328125 76.003906 182.589844 L 76.003906 184.429688 C 76.003906 184.695312 75.804688 184.890625 75.542969 184.890625 L 71.007812 184.890625 C 70.746094 184.890625 70.550781 184.695312 70.550781 184.429688 Z M 64.441406 182.589844 C 64.441406 182.328125 64.636719 182.132812 64.898438 182.132812 L 69.433594 182.132812 C 69.695312 182.132812 69.894531 182.328125 69.894531 182.589844 L 69.894531 184.429688 C 69.894531 184.695312 69.695312 184.890625 69.433594 184.890625 L 64.898438 184.890625 C 64.636719 184.890625 64.441406 184.695312 64.441406 184.429688 Z M 58.265625 189.292969 C 58.265625 189.554688 58.066406 189.753906 57.804688 189.753906 L 53.269531 189.753906 C 53.007812 189.753906 52.8125 189.554688 52.8125 189.292969 L 52.8125 186.796875 C 52.8125 186.535156 53.007812 186.335938 53.269531 186.335938 L 57.804688 186.335938 C 58.066406 186.335938 58.265625 186.535156 58.265625 186.796875 Z M 62.535156 189.292969 C 62.535156 189.554688 62.335938 189.753906 62.074219 189.753906 L 59.445312 189.753906 C 59.183594 189.753906 58.988281 189.554688 58.988281 189.292969 L 58.988281 186.796875 C 58.988281 186.535156 59.183594 186.335938 59.445312 186.335938 L 62.074219 186.335938 C 62.335938 186.335938 62.535156 186.535156 62.535156 186.796875 Z M 66.410156 193.824219 L 64.441406 193.824219 L 64.441406 186.335938 L 66.410156 186.335938 Z M 68.644531 193.824219 L 66.671875 193.824219 L 66.671875 186.335938 L 68.644531 186.335938 Z M 76.003906 192.378906 C 76.003906 192.644531 75.804688 192.839844 75.542969 192.839844 L 71.007812 192.839844 C 70.746094 192.839844 70.550781 192.644531 70.550781 192.378906 L 70.550781 189.882812 C 70.550781 189.621094 70.746094 189.425781 71.007812 189.425781 L 75.542969 189.425781 C 75.804688 189.425781 76.003906 189.621094 76.003906 189.882812 Z M 81.980469 192.378906 C 81.980469 192.644531 81.785156 192.839844 81.523438 192.839844 L 77.121094 192.839844 C 76.855469 192.839844 76.660156 192.644531 76.660156 192.378906 L 76.660156 189.882812 C 76.660156 189.621094 76.855469 189.425781 77.121094 189.425781 L 81.457031 189.425781 C 81.71875 189.425781 81.914062 189.621094 81.914062 189.882812 L 81.914062 192.378906 Z M 88.15625 192.378906 C 88.15625 192.644531 87.960938 192.839844 87.699219 192.839844 L 83.164062 192.839844 C 82.902344 192.839844 82.703125 192.644531 82.703125 192.378906 L 82.703125 189.882812 C 82.703125 189.621094 82.902344 189.425781 83.164062 189.425781 L 87.699219 189.425781 C 87.960938 189.425781 88.15625 189.621094 88.15625 189.882812 Z M 92.035156 193.824219 L 90.0625 193.824219 L 90.0625 186.335938 L 92.035156 186.335938 Z M 94.265625 193.824219 L 92.296875 193.824219 L 92.296875 186.335938 L 94.265625 186.335938 Z M 99.71875 189.292969 C 99.71875 189.554688 99.523438 189.753906 99.261719 189.753906 L 96.632812 189.753906 C 96.371094 189.753906 96.171875 189.554688 96.171875 189.292969 L 96.171875 186.796875 C 96.171875 186.535156 96.371094 186.335938 96.632812 186.335938 L 99.261719 186.335938 C 99.523438 186.335938 99.71875 186.535156 99.71875 186.796875 Z M 105.894531 189.292969 C 105.894531 189.554688 105.699219 189.753906 105.4375 189.753906 L 100.902344 189.753906 C 100.640625 189.753906 100.441406 189.554688 100.441406 189.292969 L 100.441406 186.796875 C 100.441406 186.535156 100.640625 186.335938 100.902344 186.335938 L 105.4375 186.335938 C 105.699219 186.335938 105.894531 186.535156 105.894531 186.796875 Z M 107.472656 185.875 L 51.167969 185.875 L 51.167969 185.613281 L 107.472656 185.613281 Z M 107.472656 185.875 " fill-opacity="1" fill-rule="nonzero"></path><path fill="#e5e5e3" d="M 108.789062 180.882812 L 109.117188 180.882812 L 109.117188 192.050781 L 108.789062 192.050781 Z M 108.789062 180.882812 " fill-opacity="1" fill-rule="nonzero"></path><path fill="#e5e5e3" d="M 55.765625 193.496094 C 55.898438 193.695312 56.03125 193.957031 56.03125 194.285156 L 56.03125 195.007812 C 56.03125 195.140625 56.097656 195.207031 56.226562 195.207031 L 59.578125 195.207031 C 59.710938 195.207031 59.773438 195.140625 59.773438 195.007812 L 59.773438 194.285156 C 59.773438 194.023438 59.90625 193.761719 60.039062 193.496094 L 60.039062 193.167969 L 55.832031 193.167969 L 55.832031 193.496094 Z M 55.765625 193.496094 " fill-opacity="1" fill-rule="nonzero"></path><path fill="#e5e5e3" d="M 98.667969 193.496094 C 98.800781 193.695312 98.933594 193.957031 98.933594 194.285156 L 98.933594 195.007812 C 98.933594 195.140625 98.996094 195.207031 99.128906 195.207031 L 102.480469 195.207031 C 102.609375 195.207031 102.675781 195.140625 102.675781 195.007812 L 102.675781 194.285156 C 102.675781 194.023438 102.808594 193.761719 102.941406 193.496094 L 102.941406 193.167969 L 98.734375 193.167969 L 98.734375 193.496094 Z M 98.667969 193.496094 " fill-opacity="1" fill-rule="nonzero"></path><path stroke-linecap="butt" transform="matrix(0, 0.75, -0.75, 0, 102.89268, 81.090287)" fill="none" stroke-linejoin="miter" d="M -0.000591633 7.997532 L 258.228592 7.997532 " stroke="#ff3131" stroke-width="16" stroke-opacity="1" stroke-miterlimit="4"></path><g clip-path="url(#6c51ed6d23)"><g clip-path="url(#af74b9b23d)"><g transform="matrix(1, 0, 0, 1, 87, 269)"><g clip-path="url(#0a3a43a38c)"><g clip-path="url(#c8b4fbb823)"><g clip-path="url(#4a19b08d32)"><path fill="#ffffff" d="M 0.339844 0.757812 L 19.449219 0.757812 L 19.449219 10.761719 L 0.339844 10.761719 Z M 0.339844 0.757812 " fill-opacity="1" fill-rule="nonzero"></path></g></g></g></g></g></g><g clip-path="url(#efb0738291)"><g clip-path="url(#4552b14526)"><g clip-path="url(#f6bd898825)"><path fill="#e5e5e3" d="M 179.203125 183.390625 L 178.199219 183.445312 C 178.027344 180.171875 176.621094 177.800781 174.019531 176.398438 C 172.058594 175.34375 170.148438 175.257812 170.128906 175.257812 L 170.164062 174.253906 C 170.253906 174.257812 172.335938 174.355469 174.496094 175.515625 C 176.511719 176.597656 178.964844 178.847656 179.203125 183.390625 Z M 177.042969 171.226562 C 173.984375 169.648438 171.050781 169.703125 170.925781 169.707031 L 170.960938 171.078125 C 170.988281 171.082031 173.714844 171.035156 176.464844 172.46875 C 180.101562 174.363281 182.082031 177.84375 182.355469 182.8125 L 183.722656 182.738281 C 183.34375 175.871094 179.882812 172.6875 177.042969 171.226562 Z M 180.285156 167.667969 C 176.429688 165.363281 172.632812 165.070312 172.476562 165.058594 L 172.351562 166.882812 C 172.382812 166.886719 175.867188 167.152344 179.347656 169.238281 C 183.984375 172.011719 186.371094 176.546875 186.433594 182.714844 L 188.261719 182.699219 C 188.171875 174.167969 183.878906 169.816406 180.285156 167.667969 Z M 180.285156 167.667969 " fill-opacity="1" fill-rule="nonzero"></path></g></g></g><path stroke-linecap="butt" transform="matrix(0.75, 0, 0, 0.75, 96.947818, 327.159735)" fill="none" stroke-linejoin="miter" d="M 0.00186749 3.000563 L 241.470633 3.000563 " stroke="#2e418e" stroke-width="6" stroke-opacity="1" stroke-miterlimit="4"></path></svg></svg></g></g></svg>