<svg xmlns="http://www.w3.org/2000/svg" xmlns:xlink="http://www.w3.org/1999/xlink" width="2000" zoomAndPan="magnify" viewBox="0 0 1500 1499.999933" height="2000" preserveAspectRatio="xMidYMid meet" version="1.0"><defs><filter x="0%" y="0%" width="100%" height="100%" id="5e5be5b73f"><feColorMatrix values="0 0 0 0 1 0 0 0 0 1 0 0 0 0 1 0 0 0 1 0" color-interpolation-filters="sRGB"/></filter><g/><clipPath id="22c101325e"><path d="M 296.117188 1041.859375 L 1205.453125 1041.859375 L 1205.453125 1300.511719 L 296.117188 1300.511719 Z M 296.117188 1041.859375 " clip-rule="nonzero"/></clipPath><clipPath id="7425719786"><path d="M 371.117188 1041.859375 L 1130.242188 1041.859375 C 1150.132812 1041.859375 1169.210938 1049.757812 1183.273438 1063.824219 C 1197.339844 1077.890625 1205.242188 1096.964844 1205.242188 1116.859375 L 1205.242188 1225.511719 C 1205.242188 1245.40625 1197.339844 1264.480469 1183.273438 1278.546875 C 1169.210938 1292.613281 1150.132812 1300.511719 1130.242188 1300.511719 L 371.117188 1300.511719 C 351.226562 1300.511719 332.148438 1292.613281 318.082031 1278.546875 C 304.019531 1264.480469 296.117188 1245.40625 296.117188 1225.511719 L 296.117188 1116.859375 C 296.117188 1096.964844 304.019531 1077.890625 318.082031 1063.824219 C 332.148438 1049.757812 351.226562 1041.859375 371.117188 1041.859375 Z M 371.117188 1041.859375 " clip-rule="nonzero"/></clipPath><clipPath id="75c1bee7b6"><path d="M 0.117188 0.859375 L 909.28125 0.859375 L 909.28125 259.511719 L 0.117188 259.511719 Z M 0.117188 0.859375 " clip-rule="nonzero"/></clipPath><clipPath id="93e27bb409"><path d="M 75.117188 0.859375 L 834.242188 0.859375 C 854.132812 0.859375 873.210938 8.757812 887.273438 22.824219 C 901.339844 36.890625 909.242188 55.964844 909.242188 75.859375 L 909.242188 184.511719 C 909.242188 204.40625 901.339844 223.480469 887.273438 237.546875 C 873.210938 251.613281 854.132812 259.511719 834.242188 259.511719 L 75.117188 259.511719 C 55.226562 259.511719 36.148438 251.613281 22.082031 237.546875 C 8.019531 223.480469 0.117188 204.40625 0.117188 184.511719 L 0.117188 75.859375 C 0.117188 55.964844 8.019531 36.890625 22.082031 22.824219 C 36.148438 8.757812 55.226562 0.859375 75.117188 0.859375 Z M 75.117188 0.859375 " clip-rule="nonzero"/></clipPath><clipPath id="9aaf2666a7"><rect x="0" width="910" y="0" height="260"/></clipPath><clipPath id="c93ed100fd"><path d="M 296.117188 150 L 1205 150 L 1205 741.167969 L 296.117188 741.167969 Z M 296.117188 150 " clip-rule="nonzero"/></clipPath><clipPath id="87ee0a2d52"><path d="M 750.167969 150 C 499.402344 150 296.117188 282.335938 296.117188 445.582031 C 296.117188 608.828125 499.402344 741.167969 750.167969 741.167969 C 1000.9375 741.167969 1204.222656 608.828125 1204.222656 445.582031 C 1204.222656 282.335938 1000.9375 150 750.167969 150 Z M 750.167969 150 " clip-rule="nonzero"/></clipPath><clipPath id="07af92aca1"><path d="M 0.117188 0 L 908 0 L 908 591.167969 L 0.117188 591.167969 Z M 0.117188 0 " clip-rule="nonzero"/></clipPath><clipPath id="3b3fa974f4"><path d="M 454.167969 0 C 203.402344 0 0.117188 132.335938 0.117188 295.582031 C 0.117188 458.828125 203.402344 591.167969 454.167969 591.167969 C 704.9375 591.167969 908.222656 458.828125 908.222656 295.582031 C 908.222656 132.335938 704.9375 0 454.167969 0 Z M 454.167969 0 " clip-rule="nonzero"/></clipPath><clipPath id="60461ad08f"><rect x="0" width="909" y="0" height="592"/></clipPath><clipPath id="742ea1ca42"><path d="M 296.117188 426.355469 L 1204.5625 426.355469 L 1204.5625 1182.007812 L 296.117188 1182.007812 Z M 296.117188 426.355469 " clip-rule="nonzero"/></clipPath><clipPath id="efc1291fb4"><path d="M 0.117188 0.355469 L 908.5625 0.355469 L 908.5625 756.007812 L 0.117188 756.007812 Z M 0.117188 0.355469 " clip-rule="nonzero"/></clipPath><clipPath id="7e042a31ac"><rect x="0" width="909" y="0" height="757"/></clipPath><clipPath id="3ef4d3d6fd"><path d="M 409.648438 407.996094 L 1091.710938 407.996094 L 1091.710938 836.304688 L 409.648438 836.304688 Z M 409.648438 407.996094 " clip-rule="nonzero"/></clipPath><clipPath id="c5123b5b19"><path d="M 0.648438 0.996094 L 682.710938 0.996094 L 682.710938 429.304688 L 0.648438 429.304688 Z M 0.648438 0.996094 " clip-rule="nonzero"/></clipPath><clipPath id="9380c051c3"><rect x="0" width="683" y="0" height="430"/></clipPath><clipPath id="5ce688f8c1"><path d="M 409.648438 749.738281 L 1092 749.738281 L 1092 922.875 L 409.648438 922.875 Z M 409.648438 749.738281 " clip-rule="nonzero"/></clipPath><clipPath id="6dc825409d"><path d="M 484.648438 749.738281 L 1016.710938 749.738281 C 1036.601562 749.738281 1055.679688 757.640625 1069.742188 771.703125 C 1083.808594 785.769531 1091.710938 804.847656 1091.710938 824.738281 L 1091.710938 847.875 C 1091.710938 867.765625 1083.808594 886.84375 1069.742188 900.90625 C 1055.679688 914.972656 1036.601562 922.875 1016.710938 922.875 L 484.648438 922.875 C 464.753906 922.875 445.679688 914.972656 431.613281 900.90625 C 417.546875 886.84375 409.648438 867.765625 409.648438 847.875 L 409.648438 824.738281 C 409.648438 804.847656 417.546875 785.769531 431.613281 771.703125 C 445.679688 757.640625 464.753906 749.738281 484.648438 749.738281 Z M 484.648438 749.738281 " clip-rule="nonzero"/></clipPath><clipPath id="7840f40110"><path d="M 0.648438 0.738281 L 682.761719 0.738281 L 682.761719 173.875 L 0.648438 173.875 Z M 0.648438 0.738281 " clip-rule="nonzero"/></clipPath><clipPath id="f14df07a8b"><path d="M 75.648438 0.738281 L 607.710938 0.738281 C 627.601562 0.738281 646.679688 8.640625 660.742188 22.703125 C 674.808594 36.769531 682.710938 55.847656 682.710938 75.738281 L 682.710938 98.875 C 682.710938 118.765625 674.808594 137.84375 660.742188 151.90625 C 646.679688 165.972656 627.601562 173.875 607.710938 173.875 L 75.648438 173.875 C 55.753906 173.875 36.679688 165.972656 22.613281 151.90625 C 8.546875 137.84375 0.648438 118.765625 0.648438 98.875 L 0.648438 75.738281 C 0.648438 55.847656 8.546875 36.769531 22.613281 22.703125 C 36.679688 8.640625 55.753906 0.738281 75.648438 0.738281 Z M 75.648438 0.738281 " clip-rule="nonzero"/></clipPath><clipPath id="049bb4c9ea"><rect x="0" width="683" y="0" height="174"/></clipPath><clipPath id="fc52be8307"><path d="M 509.089844 542.972656 L 992.265625 542.972656 L 992.265625 595.058594 L 509.089844 595.058594 Z M 509.089844 542.972656 " clip-rule="nonzero"/></clipPath><clipPath id="5589122e15"><path d="M 0.0898438 0.972656 L 483.265625 0.972656 L 483.265625 53.058594 L 0.0898438 53.058594 Z M 0.0898438 0.972656 " clip-rule="nonzero"/></clipPath><clipPath id="e2e02c43d2"><rect x="0" width="484" y="0" height="54"/></clipPath><clipPath id="cdb5dd8346"><path d="M 509.128906 542.972656 L 992.089844 542.972656 L 992.089844 594.722656 L 509.128906 594.722656 Z M 509.128906 542.972656 " clip-rule="nonzero"/></clipPath><clipPath id="abb2da2017"><path d="M 430.34375 637.308594 L 1071.644531 637.308594 L 1071.644531 836.304688 L 430.34375 836.304688 Z M 430.34375 637.308594 " clip-rule="nonzero"/></clipPath><clipPath id="8f1f6f72c8"><path d="M 440.09375 637.308594 L 1061.265625 637.308594 C 1063.851562 637.308594 1066.332031 638.335938 1068.160156 640.164062 C 1069.988281 641.992188 1071.015625 644.472656 1071.015625 647.058594 L 1071.015625 826.554688 C 1071.015625 829.140625 1069.988281 831.621094 1068.160156 833.449219 C 1066.332031 835.277344 1063.851562 836.304688 1061.265625 836.304688 L 440.09375 836.304688 C 437.507812 836.304688 435.027344 835.277344 433.199219 833.449219 C 431.371094 831.621094 430.34375 829.140625 430.34375 826.554688 L 430.34375 647.058594 C 430.34375 644.472656 431.371094 641.992188 433.199219 640.164062 C 435.027344 638.335938 437.507812 637.308594 440.09375 637.308594 Z M 440.09375 637.308594 " clip-rule="nonzero"/></clipPath><clipPath id="8e2fa33ce6"><path d="M 0.34375 0.308594 L 641 0.308594 L 641 199.304688 L 0.34375 199.304688 Z M 0.34375 0.308594 " clip-rule="nonzero"/></clipPath><clipPath id="e1e9b278b3"><path d="M 10.09375 0.308594 L 631.265625 0.308594 C 633.851562 0.308594 636.332031 1.335938 638.160156 3.164062 C 639.988281 4.992188 641.015625 7.472656 641.015625 10.058594 L 641.015625 189.554688 C 641.015625 192.140625 639.988281 194.621094 638.160156 196.449219 C 636.332031 198.277344 633.851562 199.304688 631.265625 199.304688 L 10.09375 199.304688 C 7.507812 199.304688 5.027344 198.277344 3.199219 196.449219 C 1.371094 194.621094 0.34375 192.140625 0.34375 189.554688 L 0.34375 10.058594 C 0.34375 7.472656 1.371094 4.992188 3.199219 3.164062 C 5.027344 1.335938 7.507812 0.308594 10.09375 0.308594 Z M 10.09375 0.308594 " clip-rule="nonzero"/></clipPath><clipPath id="3f8cd0027c"><rect x="0" width="642" y="0" height="200"/></clipPath><clipPath id="d5b7bf3b3b"><path d="M 430.34375 637.308594 L 1070.84375 637.308594 L 1070.84375 836.058594 L 430.34375 836.058594 Z M 430.34375 637.308594 " clip-rule="nonzero"/></clipPath><clipPath id="bb1992b78f"><path d="M 440.09375 637.308594 L 1061.257812 637.308594 C 1063.84375 637.308594 1066.324219 638.335938 1068.152344 640.164062 C 1069.980469 641.992188 1071.007812 644.472656 1071.007812 647.058594 L 1071.007812 826.554688 C 1071.007812 829.140625 1069.980469 831.621094 1068.152344 833.449219 C 1066.324219 835.277344 1063.84375 836.304688 1061.257812 836.304688 L 440.09375 836.304688 C 437.507812 836.304688 435.027344 835.277344 433.199219 833.449219 C 431.371094 831.621094 430.34375 829.140625 430.34375 826.554688 L 430.34375 647.058594 C 430.34375 644.472656 431.371094 641.992188 433.199219 640.164062 C 435.027344 638.335938 437.507812 637.308594 440.09375 637.308594 Z M 440.09375 637.308594 " clip-rule="nonzero"/></clipPath><clipPath id="7a2476091d"><path d="M 547.484375 1088.050781 L 954 1088.050781 L 954 1300.511719 L 547.484375 1300.511719 Z M 547.484375 1088.050781 " clip-rule="nonzero"/></clipPath><clipPath id="13582721ff"><path d="M 556.484375 1088.050781 L 944.871094 1088.050781 C 949.84375 1088.050781 953.871094 1092.078125 953.871094 1097.050781 L 953.871094 1291.511719 C 953.871094 1296.484375 949.84375 1300.511719 944.871094 1300.511719 L 556.484375 1300.511719 C 551.515625 1300.511719 547.484375 1296.484375 547.484375 1291.511719 L 547.484375 1097.050781 C 547.484375 1092.078125 551.515625 1088.050781 556.484375 1088.050781 Z M 556.484375 1088.050781 " clip-rule="nonzero"/></clipPath><clipPath id="fa23c5f837"><path d="M 0.484375 0.0507812 L 407 0.0507812 L 407 212.511719 L 0.484375 212.511719 Z M 0.484375 0.0507812 " clip-rule="nonzero"/></clipPath><clipPath id="a1b92a0624"><path d="M 9.484375 0.0507812 L 397.871094 0.0507812 C 402.84375 0.0507812 406.871094 4.078125 406.871094 9.050781 L 406.871094 203.511719 C 406.871094 208.484375 402.84375 212.511719 397.871094 212.511719 L 9.484375 212.511719 C 4.515625 212.511719 0.484375 208.484375 0.484375 203.511719 L 0.484375 9.050781 C 0.484375 4.078125 4.515625 0.0507812 9.484375 0.0507812 Z M 9.484375 0.0507812 " clip-rule="nonzero"/></clipPath><clipPath id="93d2ae1aef"><rect x="0" width="407" y="0" height="213"/></clipPath><clipPath id="2750b73b1e"><path d="M 627.464844 1134.191406 L 873.925781 1134.191406 L 873.925781 1254.371094 L 627.464844 1254.371094 Z M 627.464844 1134.191406 " clip-rule="nonzero"/></clipPath><clipPath id="1a875dcc95"><path d="M 636.464844 1134.191406 L 864.894531 1134.191406 C 869.863281 1134.191406 873.894531 1138.222656 873.894531 1143.191406 L 873.894531 1245.371094 C 873.894531 1250.34375 869.863281 1254.371094 864.894531 1254.371094 L 636.464844 1254.371094 C 631.492188 1254.371094 627.464844 1250.34375 627.464844 1245.371094 L 627.464844 1143.191406 C 627.464844 1138.222656 631.492188 1134.191406 636.464844 1134.191406 Z M 636.464844 1134.191406 " clip-rule="nonzero"/></clipPath><clipPath id="3d40262228"><path d="M 0.464844 0.191406 L 246.925781 0.191406 L 246.925781 120.371094 L 0.464844 120.371094 Z M 0.464844 0.191406 " clip-rule="nonzero"/></clipPath><clipPath id="c51b7e25f5"><path d="M 9.464844 0.191406 L 237.894531 0.191406 C 242.863281 0.191406 246.894531 4.222656 246.894531 9.191406 L 246.894531 111.371094 C 246.894531 116.34375 242.863281 120.371094 237.894531 120.371094 L 9.464844 120.371094 C 4.492188 120.371094 0.464844 116.34375 0.464844 111.371094 L 0.464844 9.191406 C 0.464844 4.222656 4.492188 0.191406 9.464844 0.191406 Z M 9.464844 0.191406 " clip-rule="nonzero"/></clipPath><clipPath id="7af02e5366"><rect x="0" width="247" y="0" height="121"/></clipPath><clipPath id="d868c1b426"><path d="M 661.253906 1160.363281 L 729.089844 1160.363281 L 729.089844 1228.199219 L 661.253906 1228.199219 Z M 661.253906 1160.363281 " clip-rule="nonzero"/></clipPath><clipPath id="1ebee311c3"><path d="M 695.171875 1160.363281 C 676.441406 1160.363281 661.253906 1175.550781 661.253906 1194.28125 C 661.253906 1213.011719 676.441406 1228.199219 695.171875 1228.199219 C 713.902344 1228.199219 729.089844 1213.011719 729.089844 1194.28125 C 729.089844 1175.550781 713.902344 1160.363281 695.171875 1160.363281 Z M 695.171875 1160.363281 " clip-rule="nonzero"/></clipPath><clipPath id="009dcc8633"><path d="M 0.253906 0.363281 L 68.089844 0.363281 L 68.089844 68.199219 L 0.253906 68.199219 Z M 0.253906 0.363281 " clip-rule="nonzero"/></clipPath><clipPath id="800a4f795d"><path d="M 34.171875 0.363281 C 15.441406 0.363281 0.253906 15.550781 0.253906 34.28125 C 0.253906 53.011719 15.441406 68.199219 34.171875 68.199219 C 52.902344 68.199219 68.089844 53.011719 68.089844 34.28125 C 68.089844 15.550781 52.902344 0.363281 34.171875 0.363281 Z M 34.171875 0.363281 " clip-rule="nonzero"/></clipPath><clipPath id="6f5b0f67fd"><rect x="0" width="69" y="0" height="69"/></clipPath><clipPath id="d5832ec81a"><path d="M 772.269531 1160.363281 L 840.101562 1160.363281 L 840.101562 1228.199219 L 772.269531 1228.199219 Z M 772.269531 1160.363281 " clip-rule="nonzero"/></clipPath><clipPath id="662dd4583f"><path d="M 806.1875 1160.363281 C 787.453125 1160.363281 772.269531 1175.550781 772.269531 1194.28125 C 772.269531 1213.011719 787.453125 1228.199219 806.1875 1228.199219 C 824.917969 1228.199219 840.101562 1213.011719 840.101562 1194.28125 C 840.101562 1175.550781 824.917969 1160.363281 806.1875 1160.363281 Z M 806.1875 1160.363281 " clip-rule="nonzero"/></clipPath><clipPath id="2e27984e26"><path d="M 0.269531 0.363281 L 68.101562 0.363281 L 68.101562 68.199219 L 0.269531 68.199219 Z M 0.269531 0.363281 " clip-rule="nonzero"/></clipPath><clipPath id="b80c876d29"><path d="M 34.1875 0.363281 C 15.453125 0.363281 0.269531 15.550781 0.269531 34.28125 C 0.269531 53.011719 15.453125 68.199219 34.1875 68.199219 C 52.917969 68.199219 68.101562 53.011719 68.101562 34.28125 C 68.101562 15.550781 52.917969 0.363281 34.1875 0.363281 Z M 34.1875 0.363281 " clip-rule="nonzero"/></clipPath><clipPath id="e002218713"><rect x="0" width="69" y="0" height="69"/></clipPath><clipPath id="0330c77fbf"><path d="M 14.527344 14.644531 L 277.839844 14.644531 L 277.839844 130.863281 L 14.527344 130.863281 Z M 14.527344 14.644531 " clip-rule="nonzero"/></clipPath><clipPath id="63dd84a61a"><path d="M 31.027344 14.644531 L 261.332031 14.644531 C 270.445312 14.644531 277.832031 22.03125 277.832031 31.144531 L 277.832031 114.363281 C 277.832031 123.476562 270.445312 130.863281 261.332031 130.863281 L 31.027344 130.863281 C 21.914062 130.863281 14.527344 123.476562 14.527344 114.363281 L 14.527344 31.144531 C 14.527344 22.03125 21.914062 14.644531 31.027344 14.644531 Z M 31.027344 14.644531 " clip-rule="nonzero"/></clipPath><clipPath id="0d64dc902a"><path d="M 0.527344 0.644531 L 263.839844 0.644531 L 263.839844 116.863281 L 0.527344 116.863281 Z M 0.527344 0.644531 " clip-rule="nonzero"/></clipPath><clipPath id="6b0950ed22"><path d="M 17.027344 0.644531 L 247.332031 0.644531 C 256.445312 0.644531 263.832031 8.03125 263.832031 17.144531 L 263.832031 100.363281 C 263.832031 109.476562 256.445312 116.863281 247.332031 116.863281 L 17.027344 116.863281 C 7.914062 116.863281 0.527344 109.476562 0.527344 100.363281 L 0.527344 17.144531 C 0.527344 8.03125 7.914062 0.644531 17.027344 0.644531 Z M 17.027344 0.644531 " clip-rule="nonzero"/></clipPath><clipPath id="5c4582502e"><rect x="0" width="264" y="0" height="117"/></clipPath><clipPath id="02a50d6896"><path d="M 14.527344 14.644531 L 278 14.644531 L 278 131 L 14.527344 131 Z M 14.527344 14.644531 " clip-rule="nonzero"/></clipPath><clipPath id="bc26c6fe44"><path d="M 31.027344 14.644531 L 261.320312 14.644531 C 270.433594 14.644531 277.820312 22.03125 277.820312 31.140625 L 277.820312 114.355469 C 277.820312 123.46875 270.433594 130.855469 261.320312 130.855469 L 31.027344 130.855469 C 21.914062 130.855469 14.527344 123.46875 14.527344 114.355469 L 14.527344 31.140625 C 14.527344 22.03125 21.914062 14.644531 31.027344 14.644531 Z M 31.027344 14.644531 " clip-rule="nonzero"/></clipPath><clipPath id="3d66642043"><path d="M 25.242188 25.414062 L 266.269531 25.414062 L 266.269531 119.410156 L 25.242188 119.410156 Z M 25.242188 25.414062 " clip-rule="nonzero"/></clipPath><clipPath id="e2125ca2f0"><path d="M 36.109375 25.777344 L 255.738281 25.777344 C 261.539062 25.777344 266.238281 30.480469 266.238281 36.277344 L 266.238281 108.910156 C 266.238281 114.710938 261.539062 119.410156 255.738281 119.410156 L 36.109375 119.410156 C 30.308594 119.410156 25.609375 114.710938 25.609375 108.910156 L 25.609375 36.277344 C 25.609375 30.480469 30.308594 25.777344 36.109375 25.777344 Z M 36.109375 25.777344 " clip-rule="nonzero"/></clipPath><clipPath id="be61a162ff"><path d="M 0.601562 0.558594 L 241.269531 0.558594 L 241.269531 94.410156 L 0.601562 94.410156 Z M 0.601562 0.558594 " clip-rule="nonzero"/></clipPath><clipPath id="656037e344"><path d="M 11.109375 0.777344 L 230.738281 0.777344 C 236.539062 0.777344 241.238281 5.480469 241.238281 11.277344 L 241.238281 83.910156 C 241.238281 89.710938 236.539062 94.410156 230.738281 94.410156 L 11.109375 94.410156 C 5.308594 94.410156 0.609375 89.710938 0.609375 83.910156 L 0.609375 11.277344 C 0.609375 5.480469 5.308594 0.777344 11.109375 0.777344 Z M 11.109375 0.777344 " clip-rule="nonzero"/></clipPath><clipPath id="ff9ac7d6b9"><rect x="0" width="242" y="0" height="95"/></clipPath><clipPath id="fdd3cc56f3"><path d="M 25.609375 25.777344 L 266 25.777344 L 266 119.023438 L 25.609375 119.023438 Z M 25.609375 25.777344 " clip-rule="nonzero"/></clipPath><clipPath id="b2dce165c0"><path d="M 36.105469 25.78125 L 255.730469 25.78125 C 261.527344 25.78125 266.230469 30.480469 266.230469 36.277344 L 266.230469 108.90625 C 266.230469 114.707031 261.527344 119.40625 255.730469 119.40625 L 36.105469 119.40625 C 30.308594 119.40625 25.609375 114.707031 25.609375 108.90625 L 25.609375 36.277344 C 25.609375 30.480469 30.308594 25.78125 36.105469 25.78125 Z M 36.105469 25.78125 " clip-rule="nonzero"/></clipPath><clipPath id="e7190bda96"><path d="M 172.34375 38.660156 L 240.179688 38.660156 L 240.179688 106.492188 L 172.34375 106.492188 Z M 172.34375 38.660156 " clip-rule="nonzero"/></clipPath><clipPath id="0a23a5d2d3"><path d="M 206.261719 106.492188 C 224.992188 106.492188 240.179688 91.308594 240.179688 72.574219 C 240.179688 53.84375 224.992188 38.660156 206.261719 38.660156 C 187.527344 38.660156 172.34375 53.84375 172.34375 72.574219 C 172.34375 91.308594 187.527344 106.492188 206.261719 106.492188 Z M 206.261719 106.492188 " clip-rule="nonzero"/></clipPath><clipPath id="c8bf7751bb"><path d="M 0.34375 0.660156 L 68.179688 0.660156 L 68.179688 68.492188 L 0.34375 68.492188 Z M 0.34375 0.660156 " clip-rule="nonzero"/></clipPath><clipPath id="18e723ed5a"><path d="M 34.261719 68.492188 C 52.992188 68.492188 68.179688 53.308594 68.179688 34.574219 C 68.179688 15.84375 52.992188 0.660156 34.261719 0.660156 C 15.527344 0.660156 0.34375 15.84375 0.34375 34.574219 C 0.34375 53.308594 15.527344 68.492188 34.261719 68.492188 Z M 34.261719 68.492188 " clip-rule="nonzero"/></clipPath><clipPath id="9ad16ae239"><rect x="0" width="69" y="0" height="69"/></clipPath><clipPath id="f8608c6f95"><path d="M 172.363281 38.675781 L 240.179688 38.675781 L 240.179688 106.492188 L 172.363281 106.492188 Z M 172.363281 38.675781 " clip-rule="nonzero"/></clipPath><clipPath id="4fa7751095"><path d="M 206.269531 106.492188 C 224.996094 106.492188 240.179688 91.3125 240.179688 72.585938 C 240.179688 53.859375 224.996094 38.675781 206.269531 38.675781 C 187.542969 38.675781 172.363281 53.859375 172.363281 72.585938 C 172.363281 91.3125 187.542969 106.492188 206.269531 106.492188 Z M 206.269531 106.492188 " clip-rule="nonzero"/></clipPath><mask id="0cdbdf75c1"><g filter="url(#5e5be5b73f)"><rect x="-1202" width="2160" fill="#000000" y="-1262.999985" height="2159.999904" fill-opacity="0.42"/></g></mask><clipPath id="422e2bbd49"><path d="M 6.996094 6.40625 L 55.359375 6.40625 L 55.359375 54.765625 L 6.996094 54.765625 Z M 6.996094 6.40625 " clip-rule="nonzero"/></clipPath><clipPath id="0b6196aa0d"><path d="M 31.179688 54.765625 C 44.53125 54.765625 55.359375 43.941406 55.359375 30.585938 C 55.359375 17.230469 44.53125 6.40625 31.179688 6.40625 C 17.824219 6.40625 6.996094 17.230469 6.996094 30.585938 C 6.996094 43.941406 17.824219 54.765625 31.179688 54.765625 Z M 31.179688 54.765625 " clip-rule="nonzero"/></clipPath><clipPath id="5f968fda60"><path d="M 0.996094 0.40625 L 49.359375 0.40625 L 49.359375 48.765625 L 0.996094 48.765625 Z M 0.996094 0.40625 " clip-rule="nonzero"/></clipPath><clipPath id="4601b00a63"><path d="M 25.179688 48.765625 C 38.53125 48.765625 49.359375 37.941406 49.359375 24.585938 C 49.359375 11.230469 38.53125 0.40625 25.179688 0.40625 C 11.824219 0.40625 0.996094 11.230469 0.996094 24.585938 C 0.996094 37.941406 11.824219 48.765625 25.179688 48.765625 Z M 25.179688 48.765625 " clip-rule="nonzero"/></clipPath><clipPath id="5a1dcad92d"><rect x="0" width="50" y="0" height="49"/></clipPath><clipPath id="7e22484909"><path d="M 7.277344 6.6875 L 55.359375 6.6875 L 55.359375 54.765625 L 7.277344 54.765625 Z M 7.277344 6.6875 " clip-rule="nonzero"/></clipPath><clipPath id="0a0a5c1161"><path d="M 31.183594 54.765625 C 44.535156 54.765625 55.359375 43.941406 55.359375 30.589844 C 55.359375 17.238281 44.535156 6.414062 31.183594 6.414062 C 17.828125 6.414062 7.007812 17.238281 7.007812 30.589844 C 7.007812 43.941406 17.828125 54.765625 31.183594 54.765625 Z M 31.183594 54.765625 " clip-rule="nonzero"/></clipPath><clipPath id="a31290d6d3"><rect x="0" width="62" y="0" height="61"/></clipPath><mask id="064a320fc8"><g filter="url(#5e5be5b73f)"><rect x="-1202" width="2160" fill="#000000" y="-1262.999985" height="2159.999904" fill-opacity="0.44"/></g></mask><clipPath id="002f7612ce"><path d="M 6.640625 6.40625 L 55 6.40625 L 55 54.765625 L 6.640625 54.765625 Z M 6.640625 6.40625 " clip-rule="nonzero"/></clipPath><clipPath id="f7339534cb"><path d="M 30.820312 54.765625 C 44.175781 54.765625 55 43.941406 55 30.585938 C 55 17.230469 44.175781 6.40625 30.820312 6.40625 C 17.46875 6.40625 6.640625 17.230469 6.640625 30.585938 C 6.640625 43.941406 17.46875 54.765625 30.820312 54.765625 Z M 30.820312 54.765625 " clip-rule="nonzero"/></clipPath><clipPath id="faa8df426b"><path d="M 0.640625 0.40625 L 49 0.40625 L 49 48.765625 L 0.640625 48.765625 Z M 0.640625 0.40625 " clip-rule="nonzero"/></clipPath><clipPath id="5ac14059fe"><path d="M 24.820312 48.765625 C 38.175781 48.765625 49 37.941406 49 24.585938 C 49 11.230469 38.175781 0.40625 24.820312 0.40625 C 11.46875 0.40625 0.640625 11.230469 0.640625 24.585938 C 0.640625 37.941406 11.46875 48.765625 24.820312 48.765625 Z M 24.820312 48.765625 " clip-rule="nonzero"/></clipPath><clipPath id="03616637e0"><rect x="0" width="49" y="0" height="49"/></clipPath><clipPath id="31fa4a7325"><path d="M 6.921875 6.6875 L 55 6.6875 L 55 54.765625 L 6.921875 54.765625 Z M 6.921875 6.6875 " clip-rule="nonzero"/></clipPath><clipPath id="e941f49a57"><path d="M 30.824219 54.765625 C 44.175781 54.765625 55 43.941406 55 30.589844 C 55 17.238281 44.175781 6.414062 30.824219 6.414062 C 17.472656 6.414062 6.648438 17.238281 6.648438 30.589844 C 6.648438 43.941406 17.472656 54.765625 30.824219 54.765625 Z M 30.824219 54.765625 " clip-rule="nonzero"/></clipPath><clipPath id="fe2813898e"><rect x="0" width="62" y="0" height="61"/></clipPath><clipPath id="f9a6f4a7c3"><rect x="0" width="288" y="0" height="138"/></clipPath><clipPath id="2dc8f7332e"><path d="M 10.105469 7.636719 L 273.417969 7.636719 L 273.417969 123.859375 L 10.105469 123.859375 Z M 10.105469 7.636719 " clip-rule="nonzero"/></clipPath><clipPath id="be4e063aa5"><path d="M 256.917969 123.859375 L 26.613281 123.859375 C 17.5 123.859375 10.113281 116.46875 10.113281 107.359375 L 10.113281 24.136719 C 10.113281 15.023438 17.5 7.636719 26.613281 7.636719 L 256.917969 7.636719 C 266.03125 7.636719 273.417969 15.023438 273.417969 24.136719 L 273.417969 107.359375 C 273.417969 116.46875 266.03125 123.859375 256.917969 123.859375 Z M 256.917969 123.859375 " clip-rule="nonzero"/></clipPath><clipPath id="785610e251"><path d="M 0.105469 0.636719 L 263.417969 0.636719 L 263.417969 116.859375 L 0.105469 116.859375 Z M 0.105469 0.636719 " clip-rule="nonzero"/></clipPath><clipPath id="cd1d325807"><path d="M 246.917969 116.859375 L 16.613281 116.859375 C 7.5 116.859375 0.113281 109.46875 0.113281 100.359375 L 0.113281 17.136719 C 0.113281 8.023438 7.5 0.636719 16.613281 0.636719 L 246.917969 0.636719 C 256.03125 0.636719 263.417969 8.023438 263.417969 17.136719 L 263.417969 100.359375 C 263.417969 109.46875 256.03125 116.859375 246.917969 116.859375 Z M 246.917969 116.859375 " clip-rule="nonzero"/></clipPath><clipPath id="50a5a16b43"><rect x="0" width="264" y="0" height="117"/></clipPath><clipPath id="fa14595e64"><path d="M 10 7.304688 L 273.414062 7.304688 L 273.414062 123.859375 L 10 123.859375 Z M 10 7.304688 " clip-rule="nonzero"/></clipPath><clipPath id="24d2d8aa0d"><path d="M 256.917969 123.859375 L 26.625 123.859375 C 17.511719 123.859375 10.125 116.46875 10.125 107.359375 L 10.125 24.144531 C 10.125 15.03125 17.511719 7.644531 26.625 7.644531 L 256.917969 7.644531 C 266.027344 7.644531 273.414062 15.03125 273.414062 24.144531 L 273.414062 107.359375 C 273.414062 116.46875 266.027344 123.859375 256.917969 123.859375 Z M 256.917969 123.859375 " clip-rule="nonzero"/></clipPath><clipPath id="0ee81d44cc"><path d="M 21.671875 19.089844 L 262.703125 19.089844 L 262.703125 113 L 21.671875 113 Z M 21.671875 19.089844 " clip-rule="nonzero"/></clipPath><clipPath id="ad283b9cd7"><path d="M 251.835938 112.722656 L 32.207031 112.722656 C 26.40625 112.722656 21.707031 108.019531 21.707031 102.222656 L 21.707031 29.589844 C 21.707031 23.789062 26.40625 19.089844 32.207031 19.089844 L 251.835938 19.089844 C 257.636719 19.089844 262.335938 23.789062 262.335938 29.589844 L 262.335938 102.222656 C 262.335938 108.019531 257.636719 112.722656 251.835938 112.722656 Z M 251.835938 112.722656 " clip-rule="nonzero"/></clipPath><clipPath id="29b662eab8"><path d="M 0.679688 0.0898438 L 241.398438 0.0898438 L 241.398438 93.878906 L 0.679688 93.878906 Z M 0.679688 0.0898438 " clip-rule="nonzero"/></clipPath><clipPath id="aaf9766325"><path d="M 230.835938 93.722656 L 11.207031 93.722656 C 5.40625 93.722656 0.707031 89.019531 0.707031 83.222656 L 0.707031 10.589844 C 0.707031 4.789062 5.40625 0.0898438 11.207031 0.0898438 L 230.835938 0.0898438 C 236.636719 0.0898438 241.335938 4.789062 241.335938 10.589844 L 241.335938 83.222656 C 241.335938 89.019531 236.636719 93.722656 230.835938 93.722656 Z M 230.835938 93.722656 " clip-rule="nonzero"/></clipPath><clipPath id="5dd837bdef"><rect x="0" width="242" y="0" height="94"/></clipPath><clipPath id="23e0fcdb0e"><path d="M 21.945312 19.476562 L 262.335938 19.476562 L 262.335938 112.722656 L 21.945312 112.722656 Z M 21.945312 19.476562 " clip-rule="nonzero"/></clipPath><clipPath id="de328f9770"><path d="M 251.835938 112.722656 L 32.214844 112.722656 C 26.417969 112.722656 21.714844 108.019531 21.714844 102.222656 L 21.714844 29.59375 C 21.714844 23.792969 26.417969 19.09375 32.214844 19.09375 L 251.835938 19.09375 C 257.636719 19.09375 262.335938 23.792969 262.335938 29.59375 L 262.335938 102.222656 C 262.335938 108.019531 257.636719 112.722656 251.835938 112.722656 Z M 251.835938 112.722656 " clip-rule="nonzero"/></clipPath><clipPath id="3d6cede6d2"><path d="M 47.765625 32.007812 L 115.601562 32.007812 L 115.601562 99.839844 L 47.765625 99.839844 Z M 47.765625 32.007812 " clip-rule="nonzero"/></clipPath><clipPath id="74d78a55ab"><path d="M 81.683594 32.007812 C 62.953125 32.007812 47.765625 47.191406 47.765625 65.925781 C 47.765625 84.65625 62.953125 99.839844 81.683594 99.839844 C 100.414062 99.839844 115.601562 84.65625 115.601562 65.925781 C 115.601562 47.191406 100.414062 32.007812 81.683594 32.007812 Z M 81.683594 32.007812 " clip-rule="nonzero"/></clipPath><clipPath id="d2279b8c02"><path d="M 0.765625 0.0078125 L 68.601562 0.0078125 L 68.601562 67.839844 L 0.765625 67.839844 Z M 0.765625 0.0078125 " clip-rule="nonzero"/></clipPath><clipPath id="124f689b9a"><path d="M 34.683594 0.0078125 C 15.953125 0.0078125 0.765625 15.191406 0.765625 33.925781 C 0.765625 52.65625 15.953125 67.839844 34.683594 67.839844 C 53.414062 67.839844 68.601562 52.65625 68.601562 33.925781 C 68.601562 15.191406 53.414062 0.0078125 34.683594 0.0078125 Z M 34.683594 0.0078125 " clip-rule="nonzero"/></clipPath><clipPath id="9b9ea41dc7"><rect x="0" width="69" y="0" height="68"/></clipPath><clipPath id="f998f915dd"><path d="M 47.765625 32.007812 L 115.582031 32.007812 L 115.582031 99.824219 L 47.765625 99.824219 Z M 47.765625 32.007812 " clip-rule="nonzero"/></clipPath><clipPath id="d83a2e2717"><path d="M 81.675781 32.007812 C 62.949219 32.007812 47.765625 47.1875 47.765625 65.914062 C 47.765625 84.640625 62.949219 99.824219 81.675781 99.824219 C 100.402344 99.824219 115.582031 84.640625 115.582031 65.914062 C 115.582031 47.1875 100.402344 32.007812 81.675781 32.007812 Z M 81.675781 32.007812 " clip-rule="nonzero"/></clipPath><mask id="4954ce73c0"><g filter="url(#5e5be5b73f)"><rect x="-670" width="2160" fill="#000000" y="-1269.999985" height="2159.999904" fill-opacity="0.42"/></g></mask><clipPath id="f4d4805074"><path d="M 6.585938 6.734375 L 54.945312 6.734375 L 54.945312 55.09375 L 6.585938 55.09375 Z M 6.585938 6.734375 " clip-rule="nonzero"/></clipPath><clipPath id="f9b068a0a9"><path d="M 30.765625 6.734375 C 17.414062 6.734375 6.585938 17.558594 6.585938 30.914062 C 6.585938 44.269531 17.414062 55.09375 30.765625 55.09375 C 44.121094 55.09375 54.945312 44.269531 54.945312 30.914062 C 54.945312 17.558594 44.121094 6.734375 30.765625 6.734375 Z M 30.765625 6.734375 " clip-rule="nonzero"/></clipPath><clipPath id="c248964f63"><path d="M 0.585938 0.734375 L 48.945312 0.734375 L 48.945312 49.09375 L 0.585938 49.09375 Z M 0.585938 0.734375 " clip-rule="nonzero"/></clipPath><clipPath id="bf6ee1584a"><path d="M 24.765625 0.734375 C 11.414062 0.734375 0.585938 11.558594 0.585938 24.914062 C 0.585938 38.269531 11.414062 49.09375 24.765625 49.09375 C 38.121094 49.09375 48.945312 38.269531 48.945312 24.914062 C 48.945312 11.558594 38.121094 0.734375 24.765625 0.734375 Z M 24.765625 0.734375 " clip-rule="nonzero"/></clipPath><clipPath id="880ceb6158"><rect x="0" width="49" y="0" height="50"/></clipPath><clipPath id="06fbaf95b2"><path d="M 6.585938 6.734375 L 54.664062 6.734375 L 54.664062 54.8125 L 6.585938 54.8125 Z M 6.585938 6.734375 " clip-rule="nonzero"/></clipPath><clipPath id="e6dae742e3"><path d="M 30.761719 6.734375 C 17.410156 6.734375 6.585938 17.558594 6.585938 30.910156 C 6.585938 44.261719 17.410156 55.085938 30.761719 55.085938 C 44.113281 55.085938 54.9375 44.261719 54.9375 30.910156 C 54.9375 17.558594 44.113281 6.734375 30.761719 6.734375 Z M 30.761719 6.734375 " clip-rule="nonzero"/></clipPath><clipPath id="e38b0c6112"><rect x="0" width="61" y="0" height="62"/></clipPath><mask id="3f474a27c9"><g filter="url(#5e5be5b73f)"><rect x="-670" width="2160" fill="#000000" y="-1269.999985" height="2159.999904" fill-opacity="0.44"/></g></mask><clipPath id="83ef3161c9"><path d="M 6.941406 6.734375 L 55.304688 6.734375 L 55.304688 55.09375 L 6.941406 55.09375 Z M 6.941406 6.734375 " clip-rule="nonzero"/></clipPath><clipPath id="7e6751050b"><path d="M 31.125 6.734375 C 17.769531 6.734375 6.941406 17.558594 6.941406 30.914062 C 6.941406 44.269531 17.769531 55.09375 31.125 55.09375 C 44.476562 55.09375 55.304688 44.269531 55.304688 30.914062 C 55.304688 17.558594 44.476562 6.734375 31.125 6.734375 Z M 31.125 6.734375 " clip-rule="nonzero"/></clipPath><clipPath id="0c8ee73c7f"><path d="M 0.941406 0.734375 L 49.304688 0.734375 L 49.304688 49.09375 L 0.941406 49.09375 Z M 0.941406 0.734375 " clip-rule="nonzero"/></clipPath><clipPath id="1c64a81e5e"><path d="M 25.125 0.734375 C 11.769531 0.734375 0.941406 11.558594 0.941406 24.914062 C 0.941406 38.269531 11.769531 49.09375 25.125 49.09375 C 38.476562 49.09375 49.304688 38.269531 49.304688 24.914062 C 49.304688 11.558594 38.476562 0.734375 25.125 0.734375 Z M 25.125 0.734375 " clip-rule="nonzero"/></clipPath><clipPath id="fee8c757c0"><rect x="0" width="50" y="0" height="50"/></clipPath><clipPath id="e9abe8a3b9"><path d="M 6.941406 6.734375 L 55.023438 6.734375 L 55.023438 54.8125 L 6.941406 54.8125 Z M 6.941406 6.734375 " clip-rule="nonzero"/></clipPath><clipPath id="badc013011"><path d="M 31.117188 6.734375 C 17.765625 6.734375 6.941406 17.558594 6.941406 30.910156 C 6.941406 44.261719 17.765625 55.085938 31.117188 55.085938 C 44.472656 55.085938 55.296875 44.261719 55.296875 30.910156 C 55.296875 17.558594 44.472656 6.734375 31.117188 6.734375 Z M 31.117188 6.734375 " clip-rule="nonzero"/></clipPath><clipPath id="b00d878b41"><rect x="0" width="62" y="0" height="62"/></clipPath><clipPath id="5a3f0aff35"><rect x="0" width="288" y="0" height="138"/></clipPath><clipPath id="bf67eb52d5"><path d="M 460.636719 1296.371094 L 1052.433594 1296.371094 L 1052.433594 1350 L 460.636719 1350 Z M 460.636719 1296.371094 " clip-rule="nonzero"/></clipPath><clipPath id="da90ab706d"><path d="M 487.453125 1296.371094 L 1025.4375 1296.371094 C 1040.246094 1296.371094 1052.25 1308.375 1052.25 1323.1875 C 1052.25 1337.996094 1040.246094 1350 1025.4375 1350 L 487.453125 1350 C 472.640625 1350 460.636719 1337.996094 460.636719 1323.1875 C 460.636719 1308.375 472.640625 1296.371094 487.453125 1296.371094 Z M 487.453125 1296.371094 " clip-rule="nonzero"/></clipPath><clipPath id="513268f7b5"><path d="M 0.636719 0.371094 L 592.398438 0.371094 L 592.398438 54 L 0.636719 54 Z M 0.636719 0.371094 " clip-rule="nonzero"/></clipPath><clipPath id="d8c3f8cf9b"><path d="M 27.453125 0.371094 L 565.4375 0.371094 C 580.246094 0.371094 592.25 12.375 592.25 27.1875 C 592.25 41.996094 580.246094 54 565.4375 54 L 27.453125 54 C 12.640625 54 0.636719 41.996094 0.636719 27.1875 C 0.636719 12.375 12.640625 0.371094 27.453125 0.371094 Z M 27.453125 0.371094 " clip-rule="nonzero"/></clipPath><clipPath id="c18068383e"><rect x="0" width="593" y="0" height="54"/></clipPath><clipPath id="1e58970bbf"><rect x="0" width="322" y="0" height="108"/></clipPath><clipPath id="bd01bbd5bb"><rect x="0" width="253" y="0" height="40"/></clipPath></defs><g clip-path="url(#22c101325e)"><g clip-path="url(#7425719786)"><g transform="matrix(1, 0, 0, 1, 296, 1041)"><g clip-path="url(#9aaf2666a7)"><g clip-path="url(#75c1bee7b6)"><g clip-path="url(#93e27bb409)"><path fill="#eff8ff" d="M 0.117188 0.859375 L 909.453125 0.859375 L 909.453125 259.511719 L 0.117188 259.511719 Z M 0.117188 0.859375 " fill-opacity="1" fill-rule="nonzero"/></g></g></g></g></g></g><g clip-path="url(#c93ed100fd)"><g clip-path="url(#87ee0a2d52)"><g transform="matrix(1, 0, 0, 1, 296, 150)"><g clip-path="url(#60461ad08f)"><g clip-path="url(#07af92aca1)"><g clip-path="url(#3b3fa974f4)"><path fill="#354155" d="M 0.117188 0 L 907.648438 0 L 907.648438 591.167969 L 0.117188 591.167969 Z M 0.117188 0 " fill-opacity="1" fill-rule="nonzero"/></g></g></g></g></g></g><g clip-path="url(#742ea1ca42)"><g transform="matrix(1, 0, 0, 1, 296, 426)"><g clip-path="url(#7e042a31ac)"><g clip-path="url(#efc1291fb4)"><path fill="#eff8ff" d="M 0.117188 0.355469 L 909.261719 0.355469 L 909.261719 756.007812 L 0.117188 756.007812 Z M 0.117188 0.355469 " fill-opacity="1" fill-rule="nonzero"/></g></g></g></g><g clip-path="url(#3ef4d3d6fd)"><g transform="matrix(1, 0, 0, 1, 409, 407)"><g clip-path="url(#9380c051c3)"><g clip-path="url(#c5123b5b19)"><path fill="#354155" d="M 0.648438 0.996094 L 683.269531 0.996094 L 683.269531 429.304688 L 0.648438 429.304688 Z M 0.648438 0.996094 " fill-opacity="1" fill-rule="nonzero"/></g></g></g></g><g clip-path="url(#5ce688f8c1)"><g clip-path="url(#6dc825409d)"><g transform="matrix(1, 0, 0, 1, 409, 749)"><g clip-path="url(#049bb4c9ea)"><g clip-path="url(#7840f40110)"><g clip-path="url(#f14df07a8b)"><path fill="#354155" d="M 0.648438 0.738281 L 682.375 0.738281 L 682.375 173.875 L 0.648438 173.875 Z M 0.648438 0.738281 " fill-opacity="1" fill-rule="nonzero"/></g></g></g></g></g></g><g clip-path="url(#fc52be8307)"><g transform="matrix(1, 0, 0, 1, 509, 542)"><g clip-path="url(#e2e02c43d2)"><g clip-path="url(#5589122e15)"><path fill="#303845" d="M 0.0898438 0.972656 L 483.320312 0.972656 L 483.320312 53.058594 L 0.0898438 53.058594 Z M 0.0898438 0.972656 " fill-opacity="1" fill-rule="nonzero"/></g></g></g></g><g clip-path="url(#cdb5dd8346)"><path stroke-linecap="butt" transform="matrix(0.75, 0, 0, 0.75, 509.089982, 542.970941)" fill="none" stroke-linejoin="miter" d="M 0.0518997 0.00228669 L 644.182163 0.00228669 L 644.182163 69.439793 L 0.0518997 69.439793 Z M 0.0518997 0.00228669 " stroke="#000000" stroke-width="4" stroke-opacity="1" stroke-miterlimit="4"/></g><g clip-path="url(#abb2da2017)"><g clip-path="url(#8f1f6f72c8)"><g transform="matrix(1, 0, 0, 1, 430, 637)"><g clip-path="url(#3f8cd0027c)"><g clip-path="url(#8e2fa33ce6)"><g clip-path="url(#e1e9b278b3)"><path fill="#7bb8e7" d="M 0.34375 0.308594 L 640.867188 0.308594 L 640.867188 199.304688 L 0.34375 199.304688 Z M 0.34375 0.308594 " fill-opacity="1" fill-rule="nonzero"/></g></g></g></g></g></g><g clip-path="url(#d5b7bf3b3b)"><g clip-path="url(#bb1992b78f)"><path stroke-linecap="butt" transform="matrix(0.75, 0, 0, 0.75, 430.342532, 637.308957)" fill="none" stroke-linejoin="miter" d="M 13.001625 -0.000484475 L 841.220446 -0.000484475 C 844.668363 -0.000484475 847.975655 1.369307 850.413155 3.806808 C 852.850655 6.244308 854.220447 9.5516 854.220447 12.999517 L 854.220447 252.327662 C 854.220447 255.775579 852.850655 259.082871 850.413155 261.520371 C 847.975655 263.957872 844.668363 265.327663 841.220446 265.327663 L 13.001625 265.327663 C 9.553708 265.327663 6.246416 263.957872 3.808916 261.520371 C 1.371415 259.082871 0.00162362 255.775579 0.00162362 252.327662 L 0.00162362 12.999517 C 0.00162362 9.5516 1.371415 6.244308 3.808916 3.806808 C 6.246416 1.369307 9.553708 -0.000484475 13.001625 -0.000484475 Z M 13.001625 -0.000484475 " stroke="#000000" stroke-width="4" stroke-opacity="1" stroke-miterlimit="4"/></g></g><g clip-path="url(#7a2476091d)"><g clip-path="url(#13582721ff)"><g transform="matrix(1, 0, 0, 1, 547, 1088)"><g clip-path="url(#93d2ae1aef)"><g clip-path="url(#fa23c5f837)"><g clip-path="url(#a1b92a0624)"><path fill="#1c1c1d" d="M 0.484375 0.0507812 L 407.152344 0.0507812 L 407.152344 212.511719 L 0.484375 212.511719 Z M 0.484375 0.0507812 " fill-opacity="1" fill-rule="nonzero"/></g></g></g></g></g></g><g clip-path="url(#2750b73b1e)"><g clip-path="url(#1a875dcc95)"><g transform="matrix(1, 0, 0, 1, 627, 1134)"><g clip-path="url(#7af02e5366)"><g clip-path="url(#3d40262228)"><g clip-path="url(#c51b7e25f5)"><path fill="#303845" d="M 0.464844 0.191406 L 246.925781 0.191406 L 246.925781 120.371094 L 0.464844 120.371094 Z M 0.464844 0.191406 " fill-opacity="1" fill-rule="nonzero"/></g></g></g></g></g></g><g clip-path="url(#d868c1b426)"><g clip-path="url(#1ebee311c3)"><g transform="matrix(1, 0, 0, 1, 661, 1160)"><g clip-path="url(#6f5b0f67fd)"><g clip-path="url(#009dcc8633)"><g clip-path="url(#800a4f795d)"><path fill="#000000" d="M 0.253906 0.363281 L 68.089844 0.363281 L 68.089844 68.199219 L 0.253906 68.199219 Z M 0.253906 0.363281 " fill-opacity="1" fill-rule="nonzero"/></g></g></g></g></g></g><g clip-path="url(#d5832ec81a)"><g clip-path="url(#662dd4583f)"><g transform="matrix(1, 0, 0, 1, 772, 1160)"><g clip-path="url(#e002218713)"><g clip-path="url(#2e27984e26)"><g clip-path="url(#b80c876d29)"><path fill="#000000" d="M 0.269531 0.363281 L 68.101562 0.363281 L 68.101562 68.199219 L 0.269531 68.199219 Z M 0.269531 0.363281 " fill-opacity="1" fill-rule="nonzero"/></g></g></g></g></g></g><path stroke-linecap="butt" transform="matrix(0.649519, 0.375, -0.375, 0.649519, 605.032373, 825.340397)" fill="none" stroke-linejoin="miter" d="M -0.00194569 3.999626 L 106.542368 3.998102 " stroke="#000000" stroke-width="8" stroke-opacity="1" stroke-miterlimit="4"/><path stroke-linecap="butt" transform="matrix(0.75, 0.000000000000001971, -0.000000000000001971, 0.75, 523.945428, 824.936573)" fill="none" stroke-linejoin="miter" d="M -0.000154294 4.001236 L 173.005069 4.001236 " stroke="#000000" stroke-width="8" stroke-opacity="1" stroke-miterlimit="4"/><path stroke-linecap="butt" transform="matrix(0.649519, 0.375, -0.375, 0.649519, 908.253891, 825.390029)" fill="none" stroke-linejoin="miter" d="M 0.000134949 4.000194 L 106.539939 4.001275 " stroke="#000000" stroke-width="8" stroke-opacity="1" stroke-miterlimit="4"/><path stroke-linecap="butt" transform="matrix(0.75, 0.000000000000001971, -0.000000000000001971, 0.75, 827.166826, 824.986205)" fill="none" stroke-linejoin="miter" d="M 0.00152353 3.99756 L 173.006747 3.99756 " stroke="#000000" stroke-width="8" stroke-opacity="1" stroke-miterlimit="4"/><g transform="matrix(1, 0, 0, 1, 872, 933)"><g clip-path="url(#f9a6f4a7c3)"><g clip-path="url(#0330c77fbf)"><g clip-path="url(#63dd84a61a)"><g transform="matrix(1, 0, 0, 1, 14, 14)"><g clip-path="url(#5c4582502e)"><g clip-path="url(#0d64dc902a)"><g clip-path="url(#6b0950ed22)"><path fill="#ffffff" d="M 0.527344 0.644531 L 263.839844 0.644531 L 263.839844 116.863281 L 0.527344 116.863281 Z M 0.527344 0.644531 " fill-opacity="1" fill-rule="nonzero"/></g></g></g></g></g></g><g clip-path="url(#02a50d6896)"><g clip-path="url(#bc26c6fe44)"><path stroke-linecap="butt" transform="matrix(1.456932, 0, 0, 1.456932, 14.526676, 14.642769)" fill="none" stroke-linejoin="miter" d="M 11.325624 0.00120922 L 169.392656 0.00120922 C 175.647772 0.00120922 180.717821 5.071259 180.717821 11.323694 L 180.717821 68.440172 C 180.717821 74.695288 175.647772 79.765338 169.392656 79.765338 L 11.325624 79.765338 C 5.070508 79.765338 0.000458525 74.695288 0.000458525 68.440172 L 0.000458525 11.323694 C 0.000458525 5.071259 5.070508 0.00120922 11.325624 0.00120922 Z M 11.325624 0.00120922 " stroke="#000000" stroke-width="2.059121" stroke-opacity="1" stroke-miterlimit="4"/></g></g><g clip-path="url(#3d66642043)"><g clip-path="url(#e2125ca2f0)"><g transform="matrix(1, 0, 0, 1, 25, 25)"><g clip-path="url(#ff9ac7d6b9)"><g clip-path="url(#be61a162ff)"><g clip-path="url(#656037e344)"><path fill="#e6e9ec" d="M 0.609375 0.777344 L 241.269531 0.777344 L 241.269531 94.410156 L 0.609375 94.410156 Z M 0.609375 0.777344 " fill-opacity="1" fill-rule="nonzero"/></g></g></g></g></g></g><g clip-path="url(#fdd3cc56f3)"><g clip-path="url(#b2dce165c0)"><path stroke-linecap="butt" transform="matrix(1.456932, 0, 0, 1.456932, 25.607515, 25.778276)" fill="none" stroke-linejoin="miter" d="M 7.20552 0.00204107 L 157.950351 0.00204107 C 161.929174 0.00204107 165.157275 3.227461 165.157275 7.206284 L 165.157275 57.056858 C 165.157275 61.038362 161.929174 64.263782 157.950351 64.263782 L 7.20552 64.263782 C 3.226697 64.263782 0.00127693 61.038362 0.00127693 57.056858 L 0.00127693 7.206284 C 0.00127693 3.227461 3.226697 0.00204107 7.20552 0.00204107 Z M 7.20552 0.00204107 " stroke="#000000" stroke-width="2.059121" stroke-opacity="1" stroke-miterlimit="4"/></g></g><g clip-path="url(#e7190bda96)"><g clip-path="url(#0a23a5d2d3)"><g transform="matrix(1, 0, 0, 1, 172, 38)"><g clip-path="url(#9ad16ae239)"><g clip-path="url(#c8bf7751bb)"><g clip-path="url(#18e723ed5a)"><path fill="#f9ff89" d="M 68.179688 68.492188 L 0.34375 68.492188 L 0.34375 0.660156 L 68.179688 0.660156 Z M 68.179688 68.492188 " fill-opacity="1" fill-rule="nonzero"/></g></g></g></g></g></g><g clip-path="url(#f8608c6f95)"><g clip-path="url(#4fa7751095)"><path stroke-linecap="butt" transform="matrix(-1.456932, 0, 0, -1.456932, 240.17775, 106.492976)" fill="none" stroke-linejoin="miter" d="M 23.273713 0.00054125 C 10.420291 0.00054125 -0.00132961 10.419481 -0.00132961 23.272903 C -0.00132961 36.126324 10.420291 46.547945 23.273713 46.547945 C 36.127135 46.547945 46.546074 36.126324 46.546074 23.272903 C 46.546074 10.419481 36.127135 0.00054125 23.273713 0.00054125 Z M 23.273713 0.00054125 " stroke="#b4b4b4" stroke-width="2.059121" stroke-opacity="1" stroke-miterlimit="4"/></g></g><g mask="url(#0cdbdf75c1)"><g transform="matrix(1, 0, 0, 1, 105, 42)"><g clip-path="url(#a31290d6d3)"><g clip-path="url(#422e2bbd49)"><g clip-path="url(#0b6196aa0d)"><g transform="matrix(1, 0, 0, 1, 6, 6)"><g clip-path="url(#5a1dcad92d)"><g clip-path="url(#5f968fda60)"><g clip-path="url(#4601b00a63)"><path fill="#ff5757" d="M 49.359375 48.765625 L 0.996094 48.765625 L 0.996094 0.40625 L 49.359375 0.40625 Z M 49.359375 48.765625 " fill-opacity="1" fill-rule="nonzero"/></g></g></g></g></g></g><g clip-path="url(#7e22484909)"><g clip-path="url(#0a0a5c1161)"><path stroke-linecap="butt" transform="matrix(-1.456932, 0, 0, -1.456932, 55.357835, 54.766298)" fill="none" stroke-linejoin="miter" d="M 16.592564 0.000461726 C 7.428402 0.000461726 -0.00105713 7.429921 -0.00105713 16.594083 C -0.00105713 25.758245 7.428402 33.187704 16.592564 33.187704 C 25.759407 33.187704 33.186185 25.758245 33.186185 16.594083 C 33.186185 7.429921 25.759407 0.000461726 16.592564 0.000461726 Z M 16.592564 0.000461726 " stroke="#ffffff" stroke-width="2.059121" stroke-opacity="1" stroke-miterlimit="4"/></g></g></g></g></g><g mask="url(#064a320fc8)"><g transform="matrix(1, 0, 0, 1, 45, 42)"><g clip-path="url(#fe2813898e)"><g clip-path="url(#002f7612ce)"><g clip-path="url(#f7339534cb)"><g transform="matrix(1, 0, 0, 1, 6, 6)"><g clip-path="url(#03616637e0)"><g clip-path="url(#faa8df426b)"><g clip-path="url(#5ac14059fe)"><path fill="#ffbd59" d="M 49 48.765625 L 0.640625 48.765625 L 0.640625 0.40625 L 49 0.40625 Z M 49 48.765625 " fill-opacity="1" fill-rule="nonzero"/></g></g></g></g></g></g><g clip-path="url(#31fa4a7325)"><g clip-path="url(#e941f49a57)"><path stroke-linecap="butt" transform="matrix(-1.456932, 0, 0, -1.456932, 55.001531, 54.766298)" fill="none" stroke-linejoin="miter" d="M 16.594672 0.000461726 C 7.43051 0.000461726 0.00105099 7.429921 0.00105099 16.594083 C 0.00105099 25.758245 7.43051 33.187704 16.594672 33.187704 C 25.758834 33.187704 33.188293 25.758245 33.188293 16.594083 C 33.188293 7.429921 25.758834 0.000461726 16.594672 0.000461726 Z M 16.594672 0.000461726 " stroke="#ffffff" stroke-width="2.059121" stroke-opacity="1" stroke-miterlimit="4"/></g></g></g></g></g></g></g><g transform="matrix(1, 0, 0, 1, 340, 940)"><g clip-path="url(#5a3f0aff35)"><g clip-path="url(#2dc8f7332e)"><g clip-path="url(#be4e063aa5)"><g transform="matrix(1, 0, 0, 1, 10, 7)"><g clip-path="url(#50a5a16b43)"><g clip-path="url(#785610e251)"><g clip-path="url(#cd1d325807)"><path fill="#ffffff" d="M 263.417969 116.859375 L 0.105469 116.859375 L 0.105469 0.636719 L 263.417969 0.636719 Z M 263.417969 116.859375 " fill-opacity="1" fill-rule="nonzero"/></g></g></g></g></g></g><g clip-path="url(#fa14595e64)"><g clip-path="url(#24d2d8aa0d)"><path stroke-linecap="butt" transform="matrix(-1.456932, 0, 0, -1.456932, 273.418066, 123.857544)" fill="none" stroke-linejoin="miter" d="M 11.325232 -0.00125705 L 169.392264 -0.00125705 C 175.64738 -0.00125705 180.71743 5.071473 180.71743 11.323909 L 180.71743 68.440387 C 180.71743 74.695503 175.64738 79.765553 169.392264 79.765553 L 11.325232 79.765553 C 5.072797 79.765553 0.00274798 74.695503 0.00274798 68.440387 L 0.00274798 11.323909 C 0.00274798 5.071473 5.072797 -0.00125705 11.325232 -0.00125705 Z M 11.325232 -0.00125705 " stroke="#000000" stroke-width="2.059121" stroke-opacity="1" stroke-miterlimit="4"/></g></g><g clip-path="url(#0ee81d44cc)"><g clip-path="url(#ad283b9cd7)"><g transform="matrix(1, 0, 0, 1, 21, 19)"><g clip-path="url(#5dd837bdef)"><g clip-path="url(#29b662eab8)"><g clip-path="url(#aaf9766325)"><path fill="#e6e9ec" d="M 241.335938 93.722656 L 0.671875 93.722656 L 0.671875 0.0898438 L 241.335938 0.0898438 Z M 241.335938 93.722656 " fill-opacity="1" fill-rule="nonzero"/></g></g></g></g></g></g><g clip-path="url(#23e0fcdb0e)"><g clip-path="url(#de328f9770)"><path stroke-linecap="butt" transform="matrix(-1.456932, 0, 0, -1.456932, 262.337229, 112.721921)" fill="none" stroke-linejoin="miter" d="M 7.20781 -0.000504433 L 157.94996 -0.000504433 C 161.928783 -0.000504433 165.156885 3.227597 165.156885 7.20642 L 165.156885 57.056993 C 165.156885 61.038497 161.928783 64.263917 157.94996 64.263917 L 7.20781 64.263917 C 3.226307 64.263917 0.000886224 61.038497 0.000886224 57.056993 L 0.000886224 7.20642 C 0.000886224 3.227597 3.226307 -0.000504433 7.20781 -0.000504433 Z M 7.20781 -0.000504433 " stroke="#000000" stroke-width="2.059121" stroke-opacity="1" stroke-miterlimit="4"/></g></g><g clip-path="url(#3d6cede6d2)"><g clip-path="url(#74d78a55ab)"><g transform="matrix(1, 0, 0, 1, 47, 32)"><g clip-path="url(#9b9ea41dc7)"><g clip-path="url(#d2279b8c02)"><g clip-path="url(#124f689b9a)"><path fill="#f9ff89" d="M 0.765625 0.0078125 L 68.601562 0.0078125 L 68.601562 67.839844 L 0.765625 67.839844 Z M 0.765625 0.0078125 " fill-opacity="1" fill-rule="nonzero"/></g></g></g></g></g></g><g clip-path="url(#f998f915dd)"><g clip-path="url(#d83a2e2717)"><path stroke-linecap="butt" transform="matrix(1.456932, 0, 0, 1.456932, 47.766934, 32.007396)" fill="none" stroke-linejoin="miter" d="M 23.274144 0.000285684 C 10.420722 0.000285684 -0.000898704 10.419225 -0.000898704 23.272647 C -0.000898704 36.126069 10.420722 46.547689 23.274144 46.547689 C 36.127565 46.547689 46.546505 36.126069 46.546505 23.272647 C 46.546505 10.419225 36.127565 0.000285684 23.274144 0.000285684 Z M 23.274144 0.000285684 " stroke="#b4b4b4" stroke-width="2.059121" stroke-opacity="1" stroke-miterlimit="4"/></g></g><g mask="url(#4954ce73c0)"><g transform="matrix(1, 0, 0, 1, 121, 35)"><g clip-path="url(#e38b0c6112)"><g clip-path="url(#f4d4805074)"><g clip-path="url(#f9b068a0a9)"><g transform="matrix(1, 0, 0, 1, 6, 6)"><g clip-path="url(#880ceb6158)"><g clip-path="url(#c248964f63)"><g clip-path="url(#bf6ee1584a)"><path fill="#ff5757" d="M 0.585938 0.734375 L 48.945312 0.734375 L 48.945312 49.09375 L 0.585938 49.09375 Z M 0.585938 0.734375 " fill-opacity="1" fill-rule="nonzero"/></g></g></g></g></g></g><g clip-path="url(#06fbaf95b2)"><g clip-path="url(#e6dae742e3)"><path stroke-linecap="butt" transform="matrix(1.456932, 0, 0, 1.456932, 6.586907, 6.734017)" fill="none" stroke-linejoin="miter" d="M 16.592956 0.000246024 C 7.428794 0.000246024 -0.000665601 7.429705 -0.000665601 16.593867 C -0.000665601 25.758029 7.428794 33.187488 16.592956 33.187488 C 25.757117 33.187488 33.186577 25.758029 33.186577 16.593867 C 33.186577 7.429705 25.757117 0.000246024 16.592956 0.000246024 Z M 16.592956 0.000246024 " stroke="#ffffff" stroke-width="2.059121" stroke-opacity="1" stroke-miterlimit="4"/></g></g></g></g></g><g mask="url(#3f474a27c9)"><g transform="matrix(1, 0, 0, 1, 181, 35)"><g clip-path="url(#b00d878b41)"><g clip-path="url(#83ef3161c9)"><g clip-path="url(#7e6751050b)"><g transform="matrix(1, 0, 0, 1, 6, 6)"><g clip-path="url(#fee8c757c0)"><g clip-path="url(#0c8ee73c7f)"><g clip-path="url(#1c64a81e5e)"><path fill="#ffbd59" d="M 0.941406 0.734375 L 49.304688 0.734375 L 49.304688 49.09375 L 0.941406 49.09375 Z M 0.941406 0.734375 " fill-opacity="1" fill-rule="nonzero"/></g></g></g></g></g></g><g clip-path="url(#e9abe8a3b9)"><g clip-path="url(#badc013011)"><path stroke-linecap="butt" transform="matrix(1.456932, 0, 0, 1.456932, 6.943152, 6.734017)" fill="none" stroke-linejoin="miter" d="M 16.592423 0.000246024 C 7.428261 0.000246024 -0.00119826 7.429705 -0.00119826 16.593867 C -0.00119826 25.758029 7.428261 33.187488 16.592423 33.187488 C 25.759266 33.187488 33.188725 25.758029 33.188725 16.593867 C 33.188725 7.429705 25.759266 0.000246024 16.592423 0.000246024 Z M 16.592423 0.000246024 " stroke="#ffffff" stroke-width="2.059121" stroke-opacity="1" stroke-miterlimit="4"/></g></g></g></g></g></g></g><g clip-path="url(#bf67eb52d5)"><g clip-path="url(#da90ab706d)"><g transform="matrix(1, 0, 0, 1, 460, 1296)"><g clip-path="url(#c18068383e)"><g clip-path="url(#513268f7b5)"><g clip-path="url(#d8c3f8cf9b)"><path fill="#1c1c1d" d="M 0.636719 0.371094 L 592.226562 0.371094 L 592.226562 54 L 0.636719 54 Z M 0.636719 0.371094 " fill-opacity="1" fill-rule="nonzero"/></g></g></g></g></g></g><g transform="matrix(1, 0, 0, 1, 590, 414)"><g clip-path="url(#1e58970bbf)"><g fill="#eff8ff" fill-opacity="1"><g transform="translate(2.248704, 76.929222)"><g><path d="M 17.171875 0 L 6 0 L 6 -39.140625 L -0.84375 -39.140625 L -0.84375 -40.328125 L 6 -40.328125 L 6 -41.65625 C 5.257812 -43.75 4.890625 -45.703125 4.890625 -47.515625 C 4.890625 -49.984375 5.445312 -51.90625 6.5625 -53.28125 C 7.675781 -54.65625 9.160156 -55.628906 11.015625 -56.203125 C 12.878906 -56.785156 14.929688 -57.078125 17.171875 -57.078125 C 20.835938 -57.078125 25.09375 -56.148438 29.9375 -54.296875 L 27.703125 -47.3125 C 24.867188 -49.632812 22.039062 -51.421875 19.21875 -52.671875 C 16.40625 -53.929688 14.113281 -54.5625 12.34375 -54.5625 C 10.113281 -54.5625 9 -53.65625 9 -51.84375 C 9 -50.78125 9.625 -49.28125 10.875 -47.34375 C 12.132812 -45.414062 14.207031 -43.078125 17.09375 -40.328125 L 25.328125 -40.328125 L 25.328125 -39.140625 L 17.171875 -39.140625 Z M 17.171875 0 "/></g></g></g><g fill="#eff8ff" fill-opacity="1"><g transform="translate(27.436518, 76.929222)"><g><path d="M 25.75 1.046875 C 22.675781 1.046875 19.71875 0.546875 16.875 -0.453125 C 14.039062 -1.453125 11.507812 -2.894531 9.28125 -4.78125 C 7.050781 -6.664062 5.285156 -8.976562 3.984375 -11.71875 C 2.679688 -14.46875 2.03125 -17.585938 2.03125 -21.078125 C 2.03125 -24.472656 2.664062 -27.445312 3.9375 -30 C 5.21875 -32.5625 6.9375 -34.691406 9.09375 -36.390625 C 11.257812 -38.085938 13.671875 -39.363281 16.328125 -40.21875 C 18.984375 -41.082031 21.660156 -41.515625 24.359375 -41.515625 C 27.609375 -41.515625 30.664062 -40.910156 33.53125 -39.703125 C 36.394531 -38.492188 38.734375 -36.679688 40.546875 -34.265625 C 42.359375 -31.847656 43.265625 -28.820312 43.265625 -25.1875 C 43.265625 -24.394531 43.207031 -23.566406 43.09375 -22.703125 C 42.976562 -21.847656 42.800781 -20.957031 42.5625 -20.03125 L 13.1875 -20.03125 C 13.320312 -13.601562 14.457031 -8.703125 16.59375 -5.328125 C 18.738281 -1.960938 21.441406 -0.28125 24.703125 -0.28125 C 27.023438 -0.28125 29.554688 -1.234375 32.296875 -3.140625 C 35.046875 -5.046875 37.84375 -7.90625 40.6875 -11.71875 L 42.984375 -4.75 C 40.421875 -2.789062 37.648438 -1.332031 34.671875 -0.375 C 31.703125 0.570312 28.726562 1.046875 25.75 1.046875 Z M 13.1875 -21.21875 L 32.515625 -21.21875 C 32.796875 -22.75 32.9375 -24.234375 32.9375 -25.671875 C 32.9375 -28.929688 32.53125 -31.628906 31.71875 -33.765625 C 30.90625 -35.910156 29.847656 -37.503906 28.546875 -38.546875 C 27.242188 -39.597656 25.847656 -40.125 24.359375 -40.125 C 22.628906 -40.125 20.914062 -39.414062 19.21875 -38 C 17.519531 -36.582031 16.113281 -34.460938 15 -31.640625 C 13.882812 -28.828125 13.28125 -25.351562 13.1875 -21.21875 Z M 13.1875 -21.21875 "/></g></g></g><g fill="#eff8ff" fill-opacity="1"><g transform="translate(72.928813, 76.929222)"><g><path d="M 14.515625 0 L 3.34375 0 L 3.34375 -40.328125 L 14.515625 -40.328125 L 14.515625 -21.078125 L 14.578125 -21.078125 C 15.367188 -24.566406 16.472656 -27.707031 17.890625 -30.5 C 19.316406 -33.289062 20.945312 -35.601562 22.78125 -37.4375 C 24.625 -39.269531 26.625 -40.46875 28.78125 -41.03125 C 30.945312 -41.59375 33.171875 -41.359375 35.453125 -40.328125 L 34.265625 -33.359375 C 30.960938 -34.890625 28.03125 -35.222656 25.46875 -34.359375 C 22.90625 -33.503906 20.71875 -31.644531 18.90625 -28.78125 C 17.09375 -25.925781 15.628906 -22.21875 14.515625 -17.65625 Z M 14.515625 0 "/></g></g></g><g fill="#eff8ff" fill-opacity="1"><g transform="translate(109.420056, 76.929222)"><g><path d="M 21 1.328125 C 18.207031 1.328125 15.519531 0.710938 12.9375 -0.515625 C 10.363281 -1.753906 8.257812 -3.5 6.625 -5.75 C 5 -8.007812 4.1875 -10.695312 4.1875 -13.8125 L 4.1875 -39.140625 L 0 -39.140625 L 0 -40.328125 L 6.203125 -40.328125 C 7.878906 -41.359375 9.3125 -42.753906 10.5 -44.515625 C 11.6875 -46.285156 12.582031 -48.191406 13.1875 -50.234375 C 13.789062 -52.285156 14.09375 -54.195312 14.09375 -55.96875 L 15.359375 -55.96875 L 15.359375 -40.328125 L 25.46875 -40.328125 L 25.46875 -39.140625 L 15.359375 -39.140625 L 15.359375 -6.84375 C 15.359375 -4.46875 15.773438 -2.707031 16.609375 -1.5625 C 17.441406 -0.425781 18.460938 0.140625 19.671875 0.140625 C 21.535156 0.140625 23.523438 -0.925781 25.640625 -3.0625 C 27.753906 -5.207031 29.695312 -8.046875 31.46875 -11.578125 L 33.90625 -4.890625 C 32.28125 -2.796875 30.316406 -1.234375 28.015625 -0.203125 C 25.710938 0.816406 23.375 1.328125 21 1.328125 Z M 21 1.328125 "/></g></g></g><g fill="#eff8ff" fill-opacity="1"><g transform="translate(142.004109, 76.929222)"><g><path d="M 16.328125 1.046875 C 13.210938 1.046875 10.640625 0.488281 8.609375 -0.625 C 6.585938 -1.738281 5.085938 -3.191406 4.109375 -4.984375 C 3.140625 -6.773438 2.65625 -8.671875 2.65625 -10.671875 C 2.65625 -13.835938 3.476562 -16.570312 5.125 -18.875 C 6.78125 -21.175781 8.96875 -23.140625 11.6875 -24.765625 C 14.40625 -26.398438 17.40625 -27.8125 20.6875 -29 C 23.96875 -30.1875 27.238281 -31.265625 30.5 -32.234375 C 30.5 -37.722656 28.519531 -40.46875 24.5625 -40.46875 C 21.957031 -40.46875 19.289062 -39.503906 16.5625 -37.578125 C 13.84375 -35.648438 11.394531 -33.054688 9.21875 -29.796875 L 7.125 -37.828125 C 10.050781 -39.035156 13.109375 -39.972656 16.296875 -40.640625 C 19.484375 -41.316406 22.539062 -41.65625 25.46875 -41.65625 C 28.488281 -41.65625 31.21875 -41.234375 33.65625 -40.390625 C 36.101562 -39.554688 38.046875 -38.234375 39.484375 -36.421875 C 40.929688 -34.609375 41.65625 -32.191406 41.65625 -29.171875 L 41.65625 0 L 30.5 0 L 30.5 -6.484375 C 28.820312 -4.484375 26.726562 -2.726562 24.21875 -1.21875 C 21.707031 0.289062 19.078125 1.046875 16.328125 1.046875 Z M 21.5625 -2.859375 C 23.050781 -2.859375 24.570312 -3.320312 26.125 -4.25 C 27.6875 -5.1875 29.144531 -6.328125 30.5 -7.671875 L 30.5 -31.046875 C 24.675781 -29.285156 20.4375 -26.992188 17.78125 -24.171875 C 15.132812 -21.359375 13.8125 -17.675781 13.8125 -13.125 C 13.8125 -10 14.554688 -7.503906 16.046875 -5.640625 C 17.535156 -3.785156 19.375 -2.859375 21.5625 -2.859375 Z M 21.5625 -2.859375 "/></g></g></g><g fill="#eff8ff" fill-opacity="1"><g transform="translate(186.868377, 76.929222)"><g><path d="M 13.609375 17.09375 C 10.160156 17.09375 6.484375 16.675781 2.578125 15.84375 L 4.671875 8.859375 C 7.835938 11.140625 10.675781 12.8125 13.1875 13.875 C 15.695312 14.945312 17.882812 15.484375 19.75 15.484375 C 22.164062 15.484375 24.148438 14.804688 25.703125 13.453125 C 27.265625 12.109375 28.429688 10.257812 29.203125 7.90625 C 29.972656 5.5625 30.359375 2.878906 30.359375 -0.140625 L 30.359375 -6.625 L 30.21875 -6.625 C 29.050781 -4.207031 27.328125 -2.320312 25.046875 -0.96875 C 22.765625 0.375 20.320312 1.046875 17.71875 1.046875 C 15.8125 1.046875 13.9375 0.664062 12.09375 -0.09375 C 10.257812 -0.863281 8.585938 -2.0625 7.078125 -3.6875 C 5.566406 -5.320312 4.367188 -7.460938 3.484375 -10.109375 C 2.597656 -12.765625 2.15625 -15.976562 2.15625 -19.75 C 2.15625 -24.164062 2.992188 -27.988281 4.671875 -31.21875 C 6.347656 -34.457031 8.582031 -36.945312 11.375 -38.6875 C 14.164062 -40.4375 17.234375 -41.3125 20.578125 -41.3125 C 23.835938 -41.3125 27.097656 -40.378906 30.359375 -38.515625 L 30.359375 -40.328125 L 41.515625 -40.328125 L 41.515625 -7.46875 C 41.515625 -2.445312 40.335938 1.898438 37.984375 5.578125 C 35.640625 9.253906 32.375 12.09375 28.1875 14.09375 C 24 16.09375 19.140625 17.09375 13.609375 17.09375 Z M 21.765625 -2.234375 C 23.492188 -2.234375 25.160156 -2.894531 26.765625 -4.21875 C 28.367188 -5.539062 29.566406 -7.554688 30.359375 -10.265625 L 30.359375 -36.984375 C 29.148438 -37.773438 27.984375 -38.34375 26.859375 -38.6875 C 25.742188 -39.039062 24.695312 -39.21875 23.71875 -39.21875 C 21.90625 -39.21875 20.300781 -38.679688 18.90625 -37.609375 C 17.507812 -36.535156 16.347656 -35.082031 15.421875 -33.25 C 14.492188 -31.414062 13.796875 -29.359375 13.328125 -27.078125 C 12.859375 -24.796875 12.625 -22.445312 12.625 -20.03125 C 12.625 -16.726562 13.007812 -13.726562 13.78125 -11.03125 C 14.550781 -8.332031 15.617188 -6.191406 16.984375 -4.609375 C 18.359375 -3.023438 19.953125 -2.234375 21.765625 -2.234375 Z M 21.765625 -2.234375 "/></g></g></g><g fill="#eff8ff" fill-opacity="1"><g transform="translate(233.058504, 76.929222)"><g><path d="M 15.484375 1.109375 C 13.347656 1.109375 11.328125 0.625 9.421875 -0.34375 C 7.515625 -1.320312 5.96875 -2.773438 4.78125 -4.703125 C 3.59375 -6.640625 3 -9.023438 3 -11.859375 L 3 -40.328125 L 14.171875 -40.328125 L 14.171875 -6.84375 C 14.171875 -4.882812 14.597656 -3.453125 15.453125 -2.546875 C 16.316406 -1.640625 17.375 -1.1875 18.625 -1.1875 C 20.164062 -1.1875 21.769531 -1.847656 23.4375 -3.171875 C 25.113281 -4.492188 26.613281 -6.351562 27.9375 -8.75 C 29.269531 -11.144531 30.191406 -13.925781 30.703125 -17.09375 L 30.703125 -40.328125 L 41.875 -40.328125 L 41.875 0 L 30.703125 0 L 30.703125 -12.140625 L 30.5 -12.140625 C 28.957031 -7.765625 26.859375 -4.460938 24.203125 -2.234375 C 21.554688 -0.00390625 18.648438 1.109375 15.484375 1.109375 Z M 15.484375 1.109375 "/></g></g></g><g fill="#eff8ff" fill-opacity="1"><g transform="translate(278.760193, 76.929222)"><g><path d="M 19.8125 1.1875 C 16.976562 1.1875 14.109375 0.929688 11.203125 0.421875 C 8.296875 -0.0859375 5.492188 -0.738281 2.796875 -1.53125 L 4.53125 -8.515625 C 7.226562 -6.367188 9.75 -4.738281 12.09375 -3.625 C 14.445312 -2.507812 16.578125 -1.753906 18.484375 -1.359375 C 20.398438 -0.960938 22.03125 -0.765625 23.375 -0.765625 C 25.5625 -0.765625 27.269531 -1.148438 28.5 -1.921875 C 29.738281 -2.691406 30.378906 -3.632812 30.421875 -4.75 C 30.421875 -6.375 29.734375 -7.90625 28.359375 -9.34375 C 26.992188 -10.789062 25.238281 -12.222656 23.09375 -13.640625 C 20.957031 -15.054688 18.675781 -16.460938 16.25 -17.859375 C 13.832031 -19.253906 11.550781 -20.6875 9.40625 -22.15625 C 7.269531 -23.625 5.515625 -25.160156 4.140625 -26.765625 C 2.773438 -28.367188 2.09375 -30.078125 2.09375 -31.890625 C 2.09375 -33.566406 2.6875 -35.007812 3.875 -36.21875 C 5.0625 -37.425781 6.65625 -38.398438 8.65625 -39.140625 C 10.65625 -39.890625 12.921875 -40.445312 15.453125 -40.8125 C 17.992188 -41.1875 20.585938 -41.375 23.234375 -41.375 C 25.554688 -41.375 27.914062 -41.242188 30.3125 -40.984375 C 32.707031 -40.734375 35.023438 -40.351562 37.265625 -39.84375 L 36.140625 -32.859375 C 34.472656 -34.117188 32.507812 -35.269531 30.25 -36.3125 C 27.988281 -37.363281 25.71875 -38.191406 23.4375 -38.796875 C 21.164062 -39.398438 19.144531 -39.703125 17.375 -39.703125 C 15.46875 -39.703125 13.894531 -39.363281 12.65625 -38.6875 C 11.425781 -38.019531 10.8125 -36.988281 10.8125 -35.59375 C 10.8125 -34.5625 11.472656 -33.5 12.796875 -32.40625 C 14.128906 -31.320312 15.851562 -30.171875 17.96875 -28.953125 C 20.082031 -27.742188 22.3125 -26.460938 24.65625 -25.109375 C 27.007812 -23.765625 29.242188 -22.3125 31.359375 -20.75 C 33.484375 -19.195312 35.207031 -17.546875 36.53125 -15.796875 C 37.851562 -14.054688 38.515625 -12.1875 38.515625 -10.1875 C 38.472656 -8.09375 37.914062 -6.320312 36.84375 -4.875 C 35.769531 -3.4375 34.335938 -2.265625 32.546875 -1.359375 C 30.753906 -0.453125 28.765625 0.195312 26.578125 0.59375 C 24.398438 0.988281 22.144531 1.1875 19.8125 1.1875 Z M 19.8125 1.1875 "/></g></g></g></g></g><g transform="matrix(1, 0, 0, 1, 625, 549)"><g clip-path="url(#bd01bbd5bb)"><g fill="#d6ffd2" fill-opacity="1"><g transform="translate(0.371194, 30.941447)"><g><path d="M 11.6875 -18.8125 C 9.414062 -18.8125 7.625 -18.054688 6.3125 -16.546875 C 5 -15.035156 4.34375 -12.960938 4.34375 -10.328125 C 4.34375 -7.628906 4.972656 -5.539062 6.234375 -4.0625 C 7.503906 -2.59375 9.3125 -1.859375 11.65625 -1.859375 C 13.101562 -1.859375 14.75 -2.113281 16.59375 -2.625 L 16.59375 -0.515625 C 15.164062 0.015625 13.398438 0.28125 11.296875 0.28125 C 8.253906 0.28125 5.90625 -0.640625 4.25 -2.484375 C 2.59375 -4.335938 1.765625 -6.960938 1.765625 -10.359375 C 1.765625 -12.492188 2.160156 -14.359375 2.953125 -15.953125 C 3.753906 -17.554688 4.90625 -18.789062 6.40625 -19.65625 C 7.914062 -20.53125 9.6875 -20.96875 11.71875 -20.96875 C 13.882812 -20.96875 15.78125 -20.570312 17.40625 -19.78125 L 16.390625 -17.71875 C 14.816406 -18.445312 13.25 -18.8125 11.6875 -18.8125 Z M 11.6875 -18.8125 "/></g></g></g><g fill="#d6ffd2" fill-opacity="1"><g transform="translate(18.62433, 30.941447)"><g><path d="M 15.859375 -7.765625 C 15.859375 -5.234375 15.222656 -3.257812 13.953125 -1.84375 C 12.679688 -0.425781 10.925781 0.28125 8.6875 0.28125 C 7.300781 0.28125 6.066406 -0.0390625 4.984375 -0.6875 C 3.910156 -1.34375 3.082031 -2.273438 2.5 -3.484375 C 1.914062 -4.703125 1.625 -6.128906 1.625 -7.765625 C 1.625 -10.285156 2.253906 -12.25 3.515625 -13.65625 C 4.785156 -15.070312 6.539062 -15.78125 8.78125 -15.78125 C 10.945312 -15.78125 12.664062 -15.054688 13.9375 -13.609375 C 15.21875 -12.171875 15.859375 -10.222656 15.859375 -7.765625 Z M 4.0625 -7.765625 C 4.0625 -5.785156 4.457031 -4.273438 5.25 -3.234375 C 6.039062 -2.203125 7.203125 -1.6875 8.734375 -1.6875 C 10.273438 -1.6875 11.441406 -2.203125 12.234375 -3.234375 C 13.035156 -4.265625 13.4375 -5.773438 13.4375 -7.765625 C 13.4375 -9.734375 13.035156 -11.226562 12.234375 -12.25 C 11.441406 -13.269531 10.265625 -13.78125 8.703125 -13.78125 C 7.171875 -13.78125 6.015625 -13.273438 5.234375 -12.265625 C 4.453125 -11.265625 4.0625 -9.765625 4.0625 -7.765625 Z M 4.0625 -7.765625 "/></g></g></g><g fill="#d6ffd2" fill-opacity="1"><g transform="translate(36.100447, 30.941447)"><g><path d="M 22.234375 0 L 22.234375 -10.078125 C 22.234375 -11.316406 21.96875 -12.242188 21.4375 -12.859375 C 20.914062 -13.472656 20.097656 -13.78125 18.984375 -13.78125 C 17.523438 -13.78125 16.445312 -13.359375 15.75 -12.515625 C 15.050781 -11.679688 14.703125 -10.394531 14.703125 -8.65625 L 14.703125 0 L 12.359375 0 L 12.359375 -10.078125 C 12.359375 -11.316406 12.09375 -12.242188 11.5625 -12.859375 C 11.03125 -13.472656 10.207031 -13.78125 9.09375 -13.78125 C 7.625 -13.78125 6.546875 -13.335938 5.859375 -12.453125 C 5.171875 -11.578125 4.828125 -10.132812 4.828125 -8.125 L 4.828125 0 L 2.484375 0 L 2.484375 -15.5 L 4.390625 -15.5 L 4.78125 -13.375 L 4.890625 -13.375 C 5.335938 -14.125 5.960938 -14.710938 6.765625 -15.140625 C 7.566406 -15.566406 8.46875 -15.78125 9.46875 -15.78125 C 11.894531 -15.78125 13.476562 -14.898438 14.21875 -13.140625 L 14.328125 -13.140625 C 14.796875 -13.953125 15.46875 -14.59375 16.34375 -15.0625 C 17.21875 -15.539062 18.21875 -15.78125 19.34375 -15.78125 C 21.09375 -15.78125 22.398438 -15.328125 23.265625 -14.421875 C 24.140625 -13.523438 24.578125 -12.085938 24.578125 -10.109375 L 24.578125 0 Z M 22.234375 0 "/></g></g></g><g fill="#d6ffd2" fill-opacity="1"><g transform="translate(63.013943, 30.941447)"><g><path d="M 9.703125 -15.75 C 11.734375 -15.75 13.3125 -15.050781 14.4375 -13.65625 C 15.5625 -12.269531 16.125 -10.304688 16.125 -7.765625 C 16.125 -5.210938 15.554688 -3.234375 14.421875 -1.828125 C 13.285156 -0.421875 11.710938 0.28125 9.703125 0.28125 C 8.691406 0.28125 7.769531 0.0976562 6.9375 -0.265625 C 6.101562 -0.640625 5.398438 -1.21875 4.828125 -2 L 4.671875 -2 L 4.171875 0 L 2.484375 0 L 2.484375 -22 L 4.828125 -22 L 4.828125 -16.65625 C 4.828125 -15.457031 4.789062 -14.382812 4.71875 -13.4375 L 4.828125 -13.4375 C 5.921875 -14.976562 7.546875 -15.75 9.703125 -15.75 Z M 9.359375 -13.78125 C 7.753906 -13.78125 6.597656 -13.320312 5.890625 -12.40625 C 5.179688 -11.488281 4.828125 -9.941406 4.828125 -7.765625 C 4.828125 -5.585938 5.191406 -4.03125 5.921875 -3.09375 C 6.648438 -2.15625 7.816406 -1.6875 9.421875 -1.6875 C 10.859375 -1.6875 11.929688 -2.207031 12.640625 -3.25 C 13.347656 -4.300781 13.703125 -5.816406 13.703125 -7.796875 C 13.703125 -9.804688 13.347656 -11.304688 12.640625 -12.296875 C 11.929688 -13.285156 10.835938 -13.78125 9.359375 -13.78125 Z M 9.359375 -13.78125 "/></g></g></g><g fill="#d6ffd2" fill-opacity="1"><g transform="translate(80.744361, 30.941447)"><g><path d="M 15.859375 -7.765625 C 15.859375 -5.234375 15.222656 -3.257812 13.953125 -1.84375 C 12.679688 -0.425781 10.925781 0.28125 8.6875 0.28125 C 7.300781 0.28125 6.066406 -0.0390625 4.984375 -0.6875 C 3.910156 -1.34375 3.082031 -2.273438 2.5 -3.484375 C 1.914062 -4.703125 1.625 -6.128906 1.625 -7.765625 C 1.625 -10.285156 2.253906 -12.25 3.515625 -13.65625 C 4.785156 -15.070312 6.539062 -15.78125 8.78125 -15.78125 C 10.945312 -15.78125 12.664062 -15.054688 13.9375 -13.609375 C 15.21875 -12.171875 15.859375 -10.222656 15.859375 -7.765625 Z M 4.0625 -7.765625 C 4.0625 -5.785156 4.457031 -4.273438 5.25 -3.234375 C 6.039062 -2.203125 7.203125 -1.6875 8.734375 -1.6875 C 10.273438 -1.6875 11.441406 -2.203125 12.234375 -3.234375 C 13.035156 -4.265625 13.4375 -5.773438 13.4375 -7.765625 C 13.4375 -9.734375 13.035156 -11.226562 12.234375 -12.25 C 11.441406 -13.269531 10.265625 -13.78125 8.703125 -13.78125 C 7.171875 -13.78125 6.015625 -13.273438 5.234375 -12.265625 C 4.453125 -11.265625 4.0625 -9.765625 4.0625 -7.765625 Z M 4.0625 -7.765625 "/></g></g></g><g fill="#d6ffd2" fill-opacity="1"><g transform="translate(98.220478, 30.941447)"><g><path d="M 4.828125 0 L 2.484375 0 L 2.484375 -15.5 L 4.828125 -15.5 Z M 2.296875 -19.6875 C 2.296875 -20.226562 2.425781 -20.625 2.6875 -20.875 C 2.945312 -21.125 3.273438 -21.25 3.671875 -21.25 C 4.046875 -21.25 4.367188 -21.117188 4.640625 -20.859375 C 4.921875 -20.609375 5.0625 -20.21875 5.0625 -19.6875 C 5.0625 -19.164062 4.921875 -18.773438 4.640625 -18.515625 C 4.367188 -18.253906 4.046875 -18.125 3.671875 -18.125 C 3.273438 -18.125 2.945312 -18.253906 2.6875 -18.515625 C 2.425781 -18.773438 2.296875 -19.164062 2.296875 -19.6875 Z M 2.296875 -19.6875 "/></g></g></g><g fill="#d6ffd2" fill-opacity="1"><g transform="translate(105.538686, 30.941447)"><g><path d="M 15.859375 -7.765625 C 15.859375 -5.234375 15.222656 -3.257812 13.953125 -1.84375 C 12.679688 -0.425781 10.925781 0.28125 8.6875 0.28125 C 7.300781 0.28125 6.066406 -0.0390625 4.984375 -0.6875 C 3.910156 -1.34375 3.082031 -2.273438 2.5 -3.484375 C 1.914062 -4.703125 1.625 -6.128906 1.625 -7.765625 C 1.625 -10.285156 2.253906 -12.25 3.515625 -13.65625 C 4.785156 -15.070312 6.539062 -15.78125 8.78125 -15.78125 C 10.945312 -15.78125 12.664062 -15.054688 13.9375 -13.609375 C 15.21875 -12.171875 15.859375 -10.222656 15.859375 -7.765625 Z M 4.0625 -7.765625 C 4.0625 -5.785156 4.457031 -4.273438 5.25 -3.234375 C 6.039062 -2.203125 7.203125 -1.6875 8.734375 -1.6875 C 10.273438 -1.6875 11.441406 -2.203125 12.234375 -3.234375 C 13.035156 -4.265625 13.4375 -5.773438 13.4375 -7.765625 C 13.4375 -9.734375 13.035156 -11.226562 12.234375 -12.25 C 11.441406 -13.269531 10.265625 -13.78125 8.703125 -13.78125 C 7.171875 -13.78125 6.015625 -13.273438 5.234375 -12.265625 C 4.453125 -11.265625 4.0625 -9.765625 4.0625 -7.765625 Z M 4.0625 -7.765625 "/></g></g></g><g fill="#d6ffd2" fill-opacity="1"><g transform="translate(123.014803, 30.941447)"><g/></g></g><g fill="#d6ffd2" fill-opacity="1"><g transform="translate(130.5308, 30.941447)"><g><path d="M 13.03125 -2.078125 L 12.90625 -2.078125 C 11.820312 -0.503906 10.203125 0.28125 8.046875 0.28125 C 6.015625 0.28125 4.4375 -0.410156 3.3125 -1.796875 C 2.1875 -3.179688 1.625 -5.148438 1.625 -7.703125 C 1.625 -10.253906 2.1875 -12.238281 3.3125 -13.65625 C 4.445312 -15.070312 6.023438 -15.78125 8.046875 -15.78125 C 10.148438 -15.78125 11.757812 -15.015625 12.875 -13.484375 L 13.0625 -13.484375 L 12.96875 -14.609375 L 12.90625 -15.6875 L 12.90625 -22 L 15.25 -22 L 15.25 0 L 13.34375 0 Z M 8.34375 -1.6875 C 9.945312 -1.6875 11.109375 -2.117188 11.828125 -2.984375 C 12.546875 -3.859375 12.90625 -5.265625 12.90625 -7.203125 L 12.90625 -7.703125 C 12.90625 -9.898438 12.539062 -11.46875 11.8125 -12.40625 C 11.082031 -13.34375 9.914062 -13.8125 8.3125 -13.8125 C 6.9375 -13.8125 5.882812 -13.273438 5.15625 -12.203125 C 4.425781 -11.140625 4.0625 -9.628906 4.0625 -7.671875 C 4.0625 -5.691406 4.421875 -4.195312 5.140625 -3.1875 C 5.867188 -2.1875 6.9375 -1.6875 8.34375 -1.6875 Z M 8.34375 -1.6875 "/></g></g></g><g fill="#d6ffd2" fill-opacity="1"><g transform="translate(148.261218, 30.941447)"><g><path d="M 12.015625 0 L 11.546875 -2.203125 L 11.4375 -2.203125 C 10.664062 -1.234375 9.894531 -0.578125 9.125 -0.234375 C 8.351562 0.109375 7.394531 0.28125 6.25 0.28125 C 4.707031 0.28125 3.5 -0.113281 2.625 -0.90625 C 1.757812 -1.695312 1.328125 -2.820312 1.328125 -4.28125 C 1.328125 -7.414062 3.828125 -9.054688 8.828125 -9.203125 L 11.46875 -9.28125 L 11.46875 -10.25 C 11.46875 -11.46875 11.203125 -12.363281 10.671875 -12.9375 C 10.148438 -13.519531 9.316406 -13.8125 8.171875 -13.8125 C 6.878906 -13.8125 5.414062 -13.414062 3.78125 -12.625 L 3.0625 -14.421875 C 3.832031 -14.835938 4.671875 -15.160156 5.578125 -15.390625 C 6.484375 -15.628906 7.394531 -15.75 8.3125 -15.75 C 10.15625 -15.75 11.519531 -15.335938 12.40625 -14.515625 C 13.300781 -13.691406 13.75 -12.378906 13.75 -10.578125 L 13.75 0 Z M 6.71875 -1.65625 C 8.175781 -1.65625 9.320312 -2.054688 10.15625 -2.859375 C 10.988281 -3.660156 11.40625 -4.78125 11.40625 -6.21875 L 11.40625 -7.625 L 9.0625 -7.515625 C 7.195312 -7.453125 5.847656 -7.160156 5.015625 -6.640625 C 4.191406 -6.128906 3.78125 -5.332031 3.78125 -4.25 C 3.78125 -3.40625 4.035156 -2.757812 4.546875 -2.3125 C 5.066406 -1.875 5.789062 -1.65625 6.71875 -1.65625 Z M 6.71875 -1.65625 "/></g></g></g><g fill="#d6ffd2" fill-opacity="1"><g transform="translate(164.352809, 30.941447)"><g/></g></g><g fill="#d6ffd2" fill-opacity="1"><g transform="translate(171.868806, 30.941447)"><g><path d="M 15.953125 -14.640625 C 15.953125 -12.546875 15.234375 -10.9375 13.796875 -9.8125 C 12.367188 -8.6875 10.328125 -8.125 7.671875 -8.125 L 5.25 -8.125 L 5.25 0 L 2.84375 0 L 2.84375 -20.671875 L 8.203125 -20.671875 C 13.367188 -20.671875 15.953125 -18.660156 15.953125 -14.640625 Z M 5.25 -10.1875 L 7.40625 -10.1875 C 9.539062 -10.1875 11.082031 -10.53125 12.03125 -11.21875 C 12.976562 -11.90625 13.453125 -13.007812 13.453125 -14.53125 C 13.453125 -15.894531 13.003906 -16.910156 12.109375 -17.578125 C 11.210938 -18.253906 9.820312 -18.59375 7.9375 -18.59375 L 5.25 -18.59375 Z M 5.25 -10.1875 "/></g></g></g><g fill="#d6ffd2" fill-opacity="1"><g transform="translate(189.288412, 30.941447)"><g><path d="M 15.859375 -7.765625 C 15.859375 -5.234375 15.222656 -3.257812 13.953125 -1.84375 C 12.679688 -0.425781 10.925781 0.28125 8.6875 0.28125 C 7.300781 0.28125 6.066406 -0.0390625 4.984375 -0.6875 C 3.910156 -1.34375 3.082031 -2.273438 2.5 -3.484375 C 1.914062 -4.703125 1.625 -6.128906 1.625 -7.765625 C 1.625 -10.285156 2.253906 -12.25 3.515625 -13.65625 C 4.785156 -15.070312 6.539062 -15.78125 8.78125 -15.78125 C 10.945312 -15.78125 12.664062 -15.054688 13.9375 -13.609375 C 15.21875 -12.171875 15.859375 -10.222656 15.859375 -7.765625 Z M 4.0625 -7.765625 C 4.0625 -5.785156 4.457031 -4.273438 5.25 -3.234375 C 6.039062 -2.203125 7.203125 -1.6875 8.734375 -1.6875 C 10.273438 -1.6875 11.441406 -2.203125 12.234375 -3.234375 C 13.035156 -4.265625 13.4375 -5.773438 13.4375 -7.765625 C 13.4375 -9.734375 13.035156 -11.226562 12.234375 -12.25 C 11.441406 -13.269531 10.265625 -13.78125 8.703125 -13.78125 C 7.171875 -13.78125 6.015625 -13.273438 5.234375 -12.265625 C 4.453125 -11.265625 4.0625 -9.765625 4.0625 -7.765625 Z M 4.0625 -7.765625 "/></g></g></g><g fill="#d6ffd2" fill-opacity="1"><g transform="translate(206.764529, 30.941447)"><g><path d="M 13.09375 0 L 13.09375 -10.015625 C 13.09375 -11.285156 12.800781 -12.226562 12.21875 -12.84375 C 11.644531 -13.46875 10.75 -13.78125 9.53125 -13.78125 C 7.90625 -13.78125 6.710938 -13.34375 5.953125 -12.46875 C 5.203125 -11.59375 4.828125 -10.144531 4.828125 -8.125 L 4.828125 0 L 2.484375 0 L 2.484375 -15.5 L 4.390625 -15.5 L 4.78125 -13.375 L 4.890625 -13.375 C 5.367188 -14.132812 6.039062 -14.722656 6.90625 -15.140625 C 7.78125 -15.566406 8.75 -15.78125 9.8125 -15.78125 C 11.675781 -15.78125 13.078125 -15.328125 14.015625 -14.421875 C 14.960938 -13.523438 15.4375 -12.085938 15.4375 -10.109375 L 15.4375 0 Z M 13.09375 0 "/></g></g></g><g fill="#d6ffd2" fill-opacity="1"><g transform="translate(224.523202, 30.941447)"><g><path d="M 7.5 -1.65625 C 7.90625 -1.65625 8.300781 -1.6875 8.6875 -1.75 C 9.082031 -1.8125 9.390625 -1.875 9.609375 -1.9375 L 9.609375 -0.140625 C 9.359375 -0.015625 8.984375 0.0820312 8.484375 0.15625 C 7.992188 0.238281 7.550781 0.28125 7.15625 0.28125 C 4.15625 0.28125 2.65625 -1.296875 2.65625 -4.453125 L 2.65625 -13.671875 L 0.4375 -13.671875 L 0.4375 -14.796875 L 2.65625 -15.78125 L 3.640625 -19.078125 L 5 -19.078125 L 5 -15.5 L 9.5 -15.5 L 9.5 -13.671875 L 5 -13.671875 L 5 -4.546875 C 5 -3.617188 5.21875 -2.90625 5.65625 -2.40625 C 6.101562 -1.90625 6.71875 -1.65625 7.5 -1.65625 Z M 7.5 -1.65625 "/></g></g></g><g fill="#d6ffd2" fill-opacity="1"><g transform="translate(234.737623, 30.941447)"><g><path d="M 9.03125 0.28125 C 6.738281 0.28125 4.929688 -0.414062 3.609375 -1.8125 C 2.285156 -3.207031 1.625 -5.144531 1.625 -7.625 C 1.625 -10.113281 2.238281 -12.09375 3.46875 -13.5625 C 4.695312 -15.039062 6.347656 -15.78125 8.421875 -15.78125 C 10.367188 -15.78125 11.90625 -15.140625 13.03125 -13.859375 C 14.164062 -12.585938 14.734375 -10.90625 14.734375 -8.8125 L 14.734375 -7.328125 L 4.0625 -7.328125 C 4.101562 -5.503906 4.5625 -4.117188 5.4375 -3.171875 C 6.3125 -2.234375 7.539062 -1.765625 9.125 -1.765625 C 10.789062 -1.765625 12.4375 -2.113281 14.0625 -2.8125 L 14.0625 -0.71875 C 13.238281 -0.363281 12.457031 -0.109375 11.71875 0.046875 C 10.976562 0.203125 10.082031 0.28125 9.03125 0.28125 Z M 8.390625 -13.8125 C 7.148438 -13.8125 6.160156 -13.40625 5.421875 -12.59375 C 4.679688 -11.78125 4.242188 -10.660156 4.109375 -9.234375 L 12.21875 -9.234375 C 12.21875 -10.710938 11.882812 -11.84375 11.21875 -12.625 C 10.5625 -13.414062 9.617188 -13.8125 8.390625 -13.8125 Z M 8.390625 -13.8125 "/></g></g></g></g></g></svg>