<svg xmlns="http://www.w3.org/2000/svg" width="500" height="500" viewBox="0 0 375 375"><defs><clipPath id="a"><path d="M268.445 269.758h19.149v10.004h-19.149Zm0 0"/></clipPath><clipPath id="b"><path d="M272.195 269.758h11.614a3.75 3.75 0 0 1 3.75 3.75v2.504a3.749 3.749 0 0 1-3.75 3.75h-11.614a3.75 3.75 0 0 1-3.75-3.75v-2.504a3.75 3.75 0 0 1 3.75-3.75m0 0"/></clipPath><clipPath id="d"><path d="M.445.758h19.149v10.004H.445Zm0 0"/></clipPath><clipPath id="e"><path d="M4.195.758H15.81a3.75 3.75 0 0 1 3.75 3.75v2.504a3.749 3.749 0 0 1-3.75 3.75H4.195a3.75 3.75 0 0 1-3.75-3.75V4.508a3.75 3.75 0 0 1 3.75-3.75m0 0"/></clipPath><clipPath id="c"><path d="M0 0h20v11H0z"/></clipPath><clipPath id="f"><path d="M108.813 180h66v17h-66Zm0 0"/></clipPath><clipPath id="h"><path d="M12 13h4v3.32h-4Zm0 0"/></clipPath><clipPath id="i"><path d="M4 13h4v3.32H4Zm0 0"/></clipPath><clipPath id="j"><path d="M47 13h4v3.32h-4Zm0 0"/></clipPath><clipPath id="k"><path d="M55 13h4v3.32h-4Zm0 0"/></clipPath><clipPath id="l"><path d="M2 .238h64.813V15H2Zm0 0"/></clipPath><clipPath id="m"><path d="M1.059.238H2V13h-.941Zm0 0"/></clipPath><clipPath id="g"><path d="M0 0h67v17H0z"/></clipPath><clipPath id="n"><path d="M60 192h4v4.957h-4Zm0 0"/></clipPath><clipPath id="o"><path d="M87.34 269.758h19.148v10.004H87.34Zm0 0"/></clipPath><clipPath id="p"><path d="M91.09 269.758h11.617a3.752 3.752 0 0 1 3.75 3.75v2.504a3.76 3.76 0 0 1-1.102 2.652 3.75 3.75 0 0 1-2.648 1.098H91.09a3.75 3.75 0 0 1-3.75-3.75v-2.504a3.75 3.75 0 0 1 3.75-3.75m0 0"/></clipPath><clipPath id="r"><path d="M.34.758h19.148v10.004H.34Zm0 0"/></clipPath><clipPath id="s"><path d="M4.09.758h11.617a3.752 3.752 0 0 1 3.75 3.75v2.504a3.76 3.76 0 0 1-1.102 2.652 3.75 3.75 0 0 1-2.648 1.098H4.09a3.75 3.75 0 0 1-3.75-3.75V4.508A3.75 3.75 0 0 1 4.09.758m0 0"/></clipPath><clipPath id="q"><path d="M0 0h20v11H0z"/></clipPath><clipPath id="t"><path d="M170 165h19v19h-19Zm0 0"/></clipPath><clipPath id="u"><path d="m166.09 170.785 10.574-9.55 16.086 17.812-10.574 9.55Zm0 0"/></clipPath><clipPath id="v"><path d="m166.09 170.785 10.574-9.55 16.086 17.812-10.574 9.55Zm0 0"/></clipPath></defs><path fill="none" stroke="#a52626" stroke-width="1.5" d="M122.55 106.113v64.649M144.73 121.559v49.203M165.266 130.758v40.004M187.445 134.367v36.395M209.621 130.758v40.004M230.16 121.559v49.203M250.695 106.113v64.649M303.617 106.113v64.649M325.793 121.559v49.203M346.328 130.758v40.004M368.512 134.367v36.395M6.602 134.367v36.395M28.777 130.758v40.004M49.313 121.559v49.203M69.852 106.113v64.649"/><path fill="none" stroke="#ff3131" stroke-width="4.5" d="M-21.996 170.758h410.715M-21.996 198.129h410.715"/><path fill="none" stroke="#ff3131" stroke-width="12" d="M277.996 81.09v193.672"/><path fill="none" stroke="#ff3131" stroke-width="4.5" d="M101.34 81.973q86.05 105.07 172.101 0M282.402 81.973q86.05 105.07 172.106 0M-79.508 81.973q86.055 105.07 172.106 0"/><g clip-path="url(#a)"><g clip-path="url(#b)"><g clip-path="url(#c)" transform="translate(268 269)"><g clip-path="url(#d)"><g clip-path="url(#e)"><path fill="#fff" d="M.445.758h19.11v10.004H.445Zm0 0"/></g></g></g></g></g><path fill="none" stroke="#5170ff" stroke-width="4.5" d="M70.617 306.762h233.766"/><g clip-path="url(#f)"><g clip-path="url(#g)" transform="translate(108 180)"><g clip-path="url(#h)"><path fill="#e5e5e3" d="M13.734 13.074c.86 0 1.524.66 1.524 1.524 0 .859-.664 1.523-1.524 1.523a1.5 1.5 0 0 1-1.527-1.523c0-.797.664-1.524 1.527-1.524m0 2.45c.461 0 .86-.399.86-.86a.88.88 0 0 0-.86-.863.88.88 0 0 0-.863.863c0 .461.399.86.863.86m0 0"/></g><g clip-path="url(#i)"><path fill="#e5e5e3" d="M5.914 13.074c.863 0 1.524.66 1.524 1.524 0 .859-.66 1.523-1.524 1.523-.86 0-1.523-.664-1.523-1.523 0-.797.73-1.524 1.523-1.524m0 2.45a.88.88 0 0 0 .863-.86.88.88 0 0 0-.863-.863c-.46 0-.86.398-.86.863 0 .461.4.86.86.86m0 0"/></g><g clip-path="url(#j)"><path fill="#e5e5e3" d="M49.371 13.074c.863 0 1.524.66 1.524 1.524 0 .859-.66 1.523-1.524 1.523-.86 0-1.523-.664-1.523-1.523-.067-.797.664-1.524 1.523-1.524m0 2.45a.88.88 0 0 0 .863-.86.88.88 0 0 0-.863-.863.876.876 0 0 0-.86.863c-.066.461.329.86.86.86m0 0"/></g><g clip-path="url(#k)"><path fill="#e5e5e3" d="M57.121 13.074c.863 0 1.524.66 1.524 1.524 0 .859-.66 1.523-1.524 1.523-.86 0-1.523-.664-1.523-1.523 0-.797.73-1.524 1.523-1.524m0 2.45a.88.88 0 0 0 .863-.86.88.88 0 0 0-.863-.863c-.46 0-.86.398-.86.863 0 .461.4.86.86.86m0 0"/></g><path fill="#e5e5e3" d="M19.563 13.008a.454.454 0 0 1-.465-.465V7.906c0-.265.199-.465.465-.465.265 0 .464.2.464.465v4.637c0 .266-.199.465-.465.465M17.441 13.008a.454.454 0 0 1-.464-.465V7.906c0-.265.199-.465.464-.465.266 0 .465.2.465.465v4.637c0 .266-.199.465-.465.465M43.543 13.008h-.066a.454.454 0 0 1-.465-.465V7.906c0-.265.199-.465.465-.465h.132c.266 0 .461.2.461.465v4.637c-.066.266-.261.465-.527.465M45.727 13.008q-.1 0 0 0h-.067c-.262 0-.46-.2-.46-.465V7.906c0-.265.198-.465.46-.465h.133c.266 0 .465.2.465.465v4.637c-.067.266-.266.465-.531.465m0 0"/><g clip-path="url(#l)"><path fill="#e5e5e3" d="M2.406.488H58.38c4.176 0 7.488 9.207 7.95 10.864.198.66.132 1.257-.196 1.722-.465.86-1.723 1.258-2.653 1.39-1.39.2-1.789.266-3.378.266h-.594c-.133 0-.399-.132-.399-.597 0-.067 0-1.524-1.191-1.524h-9.207c-1.195 0-1.195 1.457-1.195 1.524 0 .465-.266.597-.395.597H16.316c-.132 0-.398-.132-.398-.597 0-.067 0-1.524-1.191-1.524H3c-.133 0-.332 0-.46-.066-.333-.066-.333-.266-.333-.398V1.28c0-.133 0-.332.066-.465-.132-.328.067-.328.133-.328m57.961 6.887 3.512 1.258c-.2-.328-2.188-4.106-2.582-4.836h-.93ZM21.945 2.672c0-.266-.199-.465-.46-.465h-4.57c-.267 0-.466.2-.466.465v1.855c0 .266.2.465.465.465h4.57c.262 0 .461-.199.461-.465Zm6.16 0a.45.45 0 0 0-.46-.465h-4.57c-.266 0-.466.2-.466.465v1.855c0 .266.2.465.465.465h4.57c.266 0 .461-.199.461-.465Zm6.23 0c0-.266-.198-.465-.464-.465h-4.57c-.266 0-.465.2-.465.465v1.855c0 .266.2.465.465.465h4.57c.266 0 .465-.199.465-.465Zm6.161 0c0-.266-.2-.465-.465-.465h-4.57c-.266 0-.465.2-.465.465v1.855c0 .266.2.465.465.465h4.57c.266 0 .465-.199.465-.465Zm6.227 0c0-.266-.2-.465-.465-.465h-4.57c-.266 0-.465.2-.465.465v1.855c0 .266.199.465.465.465h4.57c.265 0 .465-.199.465-.465Zm1.855 6.758c0 .265.2.465.461.465h2.652c.266 0 .461-.2.461-.465V6.91a.45.45 0 0 0-.46-.46h-2.653c-.262 0-.46.198-.46.46ZM44.668 14h1.988V6.45h-1.988Zm-2.188 0h1.989V6.45H42.48Zm-7.484-1.457c0 .266.2.465.465.465h4.57c.266 0 .465-.2.465-.465v-2.516c0-.265-.2-.464-.465-.464h-4.57c-.266 0-.465.199-.465.464Zm-6.16 0c0 .266.2.465.465.465h4.57c.266 0 .465-.2.465-.465v-2.516c0-.265-.2-.464-.465-.464h-4.57c-.266 0-.465.199-.465.464Zm-6.227 0c0 .266.2.465.465.465h4.57c.266 0 .461-.2.461-.465v-2.516a.45.45 0 0 0-.46-.464h-4.57c-.266 0-.466.199-.466.464ZM18.633 14h1.988V6.45h-1.988Zm-2.184 0h1.988V6.45H16.45Zm-5.566-4.57c0 .265.199.465.465.465h2.648c.266 0 .465-.2.465-.465V6.91c0-.262-.2-.46-.465-.46h-2.648c-.266 0-.465.198-.465.46Zm-6.16 0c0 .265.199.465.465.465h4.57c.265 0 .465-.2.465-.465V6.91c0-.262-.2-.46-.465-.46h-4.57c-.266 0-.465.198-.465.46ZM3.066 5.984H59.31V5.72H3.066Zm0 0"/></g><g clip-path="url(#m)"><path fill="#e5e5e3" d="M1.742.95H1.41v11.26h.332Zm0 0"/></g><path fill="#e5e5e3" d="M55.398 13.668c-.132.2-.261.465-.261.797v.726q0 .2-.2.2H51.56q-.2 0-.2-.2v-.726c0-.266-.132-.531-.265-.797v-.332h4.238v.332ZM11.945 13.668c-.133.2-.265.465-.265.797v.726q0 .2-.2.2H8.102q-.2 0-.2-.2v-.726c0-.266-.132-.531-.265-.797v-.332h4.242v.332Zm0 0"/></g></g><path fill="#e5e5e3" d="M1.895 193.055c-.852 0-1.508.722-1.508 1.578 0 .855.656 1.578 1.508 1.578.855 0 1.511-.723 1.511-1.578 0-.918-.656-1.578-1.511-1.578m0 2.433a.87.87 0 0 1-.852-.855.87.87 0 0 1 .852-.856.87.87 0 0 1 .855.856c0 .46-.328.855-.855.855M7.676 192.992c.265 0 .46-.199.46-.46v-4.602a.447.447 0 0 0-.46-.457.446.446 0 0 0-.457.457v4.601c0 .262.195.461.457.461M5.574 192.992c.266 0 .461-.199.461-.46v-4.602a.447.447 0 0 0-.46-.457.45.45 0 0 0-.462.457v4.601c0 .262.2.461.461.461M37.11 193.055c-.852 0-1.508.66-1.508 1.511 0 .856.656 1.512 1.507 1.512.856 0 1.512-.656 1.512-1.512 0-.789-.656-1.511-1.512-1.511m0 2.433a.87.87 0 0 1-.852-.855.87.87 0 0 1 .851-.856.87.87 0 0 1 .856.856.87.87 0 0 1-.856.855M44.863 193.055c-.855 0-1.511.66-1.511 1.511 0 .856.656 1.512 1.511 1.512.856 0 1.512-.656 1.512-1.512 0-.789-.723-1.511-1.512-1.511m0 2.433a.87.87 0 0 1-.855-.855.87.87 0 0 1 .855-.856.87.87 0 0 1 .856.856.87.87 0 0 1-.856.855M31.328 192.992c.266 0 .461-.199.461-.46v-4.602a.447.447 0 0 0-.46-.457.446.446 0 0 0-.458.457v4.601c-.066.262.195.461.457.461M33.434 192.992c.261 0 .457-.199.457-.46v-4.602a.446.446 0 0 0-.457-.457.447.447 0 0 0-.461.457v4.601c0 .262.195.461.46.461m0 0"/><path fill="#e5e5e3" d="M48.348 180.574H-9.273c-.133 0-.329.067-.395.328-.066.13-.066.328-.066.461v10.84c0 .129.066.328.328.395.133.062.332.062.46.062h11.63c1.183 0 1.183 1.45 1.183 1.512 0 .46.262.594.395.594h30.351c.133 0 .395-.133.395-.594 0-.063 0-1.512 1.183-1.512h11.63c.132 0 .327 0 .46-.062.328-.067.328-.266.328-.395v-10.84c0-.133 0-.332-.066-.46.066-.329-.133-.329-.195-.329m-19.383 2.168a.45.45 0 0 1 .46-.46h4.532c.262 0 .461.198.461.46v1.84c0 .262-.2.457-.461.457h-4.531a.447.447 0 0 1-.461-.457Zm-6.11 0c0-.262.196-.46.457-.46h4.536c.261 0 .46.198.46.46v1.84c0 .262-.199.457-.46.457h-4.535a.446.446 0 0 1-.458-.457Zm-5.98 0c0-.262.2-.46.46-.46h4.337c.262 0 .46.198.46.46v1.84c0 .262-.198.457-.46.457h-4.336a.45.45 0 0 1-.461-.457Zm-6.176 0c0-.262.2-.46.461-.46h4.531c.266 0 .461.198.461.46v1.84a.447.447 0 0 1-.46.457H11.16a.45.45 0 0 1-.46-.457Zm-6.11 0a.45.45 0 0 1 .462-.46h4.531c.262 0 .461.198.461.46v1.84c0 .262-.2.457-.461.457H5.051a.447.447 0 0 1-.461-.457Zm-6.175 6.7c0 .265-.2.46-.46.46h-4.532a.447.447 0 0 1-.461-.46v-2.497a.45.45 0 0 1 .46-.46h4.532c.262 0 .461.199.461.46Zm4.27 0c0 .265-.196.46-.461.46H-.402a.447.447 0 0 1-.461-.46v-2.497a.45.45 0 0 1 .46-.46h2.626c.265 0 .46.199.46.46Zm3.879 4.535H4.59v-7.493h1.973Zm2.23 0H6.824v-7.493h1.969Zm7.36-1.446a.45.45 0 0 1-.462.461h-4.53c-.263 0-.462-.199-.462-.46v-2.497c0-.265.2-.46.461-.46h4.531c.266 0 .461.195.461.46Zm5.98 0c0 .262-.2.461-.461.461H17.27c-.262 0-.461-.199-.461-.46v-2.497c0-.265.199-.46.46-.46h4.336a.45.45 0 0 1 .461.46v2.496Zm6.176 0c0 .262-.2.461-.461.461h-4.535a.45.45 0 0 1-.458-.46v-2.497c0-.265.196-.46.457-.46h4.536a.45.45 0 0 1 .46.46Zm3.875 1.446H30.21v-7.493h1.973Zm2.234 0h-1.973v-7.493h1.973Zm5.453-4.536c0 .266-.2.461-.46.461h-2.63a.447.447 0 0 1-.457-.46v-2.497c0-.261.196-.46.457-.46h2.63c.26 0 .46.199.46.46Zm6.176 0c0 .266-.2.461-.461.461h-4.531a.447.447 0 0 1-.461-.46v-2.497a.45.45 0 0 1 .46-.46h4.532c.262 0 .46.199.46.46Zm1.578-3.414H-8.684v-.265h56.309ZM48.938 181.031h.328v11.172h-.328Zm0 0"/><path fill="#e5e5e3" d="M-4.082 193.648c.129.196.262.461.262.79v.722q0 .195.199.195h3.348q.199 0 .199-.195v-.722c0-.266.129-.528.262-.79v-.328h-4.204v.328ZM38.82 193.648c.13.196.262.461.262.79v.722q0 .195.195.195h3.352q.2 0 .2-.195v-.722c0-.266.128-.528.26-.79v-.328h-4.202v.328Zm0 0"/><g clip-path="url(#n)"><path fill="#e5e5e3" d="M61.746 192.906c-.855 0-1.512.723-1.512 1.578 0 .852.657 1.575 1.512 1.575.856 0 1.512-.723 1.512-1.575 0-.922-.656-1.578-1.512-1.578m0 2.43a.87.87 0 0 1-.855-.852.87.87 0 0 1 .855-.855.87.87 0 0 1 .856.855c0 .457-.329.852-.856.852m0 0"/></g><path fill="#e5e5e3" d="M53.992 192.906c-.851 0-1.512.656-1.512 1.512 0 .852.66 1.512 1.512 1.512.856 0 1.512-.66 1.512-1.512.066-.79-.656-1.512-1.512-1.512m0 2.43a.87.87 0 0 1-.851-.852.87.87 0 0 1 .851-.855.87.87 0 0 1 .856.855c.066.457-.328.852-.856.852M67.527 192.84a.45.45 0 0 0 .461-.461v-4.598c0-.261-.199-.46-.46-.46-.262 0-.462.199-.462.46v4.598c0 .266.2.46.461.46M65.426 192.84a.45.45 0 0 0 .46-.461v-4.598c0-.261-.198-.46-.46-.46s-.461.199-.461.46v4.598c0 .266.2.46.46.46M49.527 180.883h.328v11.168h-.328ZM96.96 192.906c-.855 0-1.51.656-1.51 1.512 0 .852.655 1.512 1.51 1.512.856 0 1.513-.66 1.513-1.512 0-.79-.657-1.512-1.512-1.512m0 2.43a.87.87 0 0 1-.855-.852.87.87 0 0 1 .856-.855.87.87 0 0 1 .855.855.87.87 0 0 1-.855.852M104.715 192.906c-.856 0-1.512.656-1.512 1.512 0 .852.656 1.512 1.512 1.512a1.49 1.49 0 0 0 1.512-1.512c0-.79-.723-1.512-1.512-1.512m0 2.43a.87.87 0 0 1-.856-.852.87.87 0 0 1 .856-.855.87.87 0 0 1 .851.855.87.87 0 0 1-.851.852M91.18 192.84a.45.45 0 0 0 .46-.461v-4.598c0-.261-.199-.46-.46-.46-.262 0-.461.199-.461.46v4.598c-.067.266.199.46.46.46M93.281 192.84a.45.45 0 0 0 .461-.461v-4.598c0-.261-.199-.46-.46-.46-.262 0-.462.199-.462.46v4.598c0 .266.2.46.461.46m0 0"/><path fill="#e5e5e3" d="M108.195 180.422H50.578c-.133 0-.328.066-.394.328-.067.133-.067.332-.067.46v10.84c0 .134.067.329.328.395.133.067.328.067.461.067h11.63c1.183 0 1.183 1.445 1.183 1.511 0 .461.261.59.39.59h30.356c.133 0 .394-.129.394-.59 0-.066 0-1.511 1.184-1.511h11.629c.129 0 .328 0 .457-.067.328-.066.328-.261.328-.394v-10.84c0-.129 0-.328-.062-.461.062-.328-.133-.328-.2-.328m-19.382 2.168c0-.262.199-.457.46-.457h4.536c.261 0 .457.195.457.457v1.84c0 .265-.196.46-.457.46h-4.536a.45.45 0 0 1-.46-.46Zm-6.11 0c0-.262.2-.457.461-.457H87.7c.262 0 .457.195.457.457v1.84c0 .265-.195.46-.457.46h-4.535a.45.45 0 0 1-.46-.46Zm-5.976 0c0-.262.195-.457.457-.457h4.34c.261 0 .456.195.456.457v1.84c0 .265-.195.46-.457.46h-4.34a.447.447 0 0 1-.456-.46Zm-6.176 0c0-.262.195-.457.457-.457h4.535c.262 0 .46.195.46.457v1.84c0 .265-.198.46-.46.46h-4.535a.447.447 0 0 1-.457-.46Zm-6.11 0c0-.262.196-.457.457-.457h4.536c.261 0 .46.195.46.457v1.84c0 .265-.199.46-.46.46h-4.536a.447.447 0 0 1-.457-.46Zm-6.175 6.703c0 .262-.2.46-.461.46H53.27a.45.45 0 0 1-.458-.46v-2.496c0-.262.196-.461.458-.461h4.535c.261 0 .46.2.46.46Zm4.27 0c0 .262-.2.46-.462.46h-2.629a.45.45 0 0 1-.457-.46v-2.496c0-.262.196-.461.457-.461h2.63c.26 0 .46.2.46.46Zm3.874 4.531h-1.969v-7.488h1.97Zm2.235 0h-1.973v-7.488h1.973Zm7.359-1.445c0 .266-.2.46-.461.46h-4.535a.447.447 0 0 1-.457-.46v-2.496c0-.262.195-.457.457-.457h4.535c.262 0 .46.195.46.457Zm5.976 0c0 .266-.195.46-.457.46h-4.402a.447.447 0 0 1-.46-.46v-2.496c0-.262.194-.457.46-.457h4.336c.262 0 .457.195.457.457v2.496Zm6.176 0c0 .266-.195.46-.457.46h-4.535a.45.45 0 0 1-.46-.46v-2.496c0-.262.198-.457.46-.457H87.7c.262 0 .457.195.457.457Zm3.88 1.445h-1.974v-7.488h1.973Zm2.23 0h-1.97v-7.488h1.97Zm5.453-4.531c0 .262-.196.46-.457.46h-2.63c-.26 0-.46-.198-.46-.46v-2.496c0-.262.2-.461.46-.461h2.63c.261 0 .457.2.457.46Zm6.176 0c0 .262-.196.46-.457.46h-4.536c-.261 0-.46-.198-.46-.46v-2.496c0-.262.199-.461.46-.461h4.535c.262 0 .458.2.458.46Zm1.578-3.418H51.168v-.262h56.305ZM108.79 180.883h.327v11.168h-.328Zm0 0"/><path fill="#e5e5e3" d="M55.766 193.496c.132.2.265.461.265.79v.722q.001.2.196.199h3.351c.133 0 .195-.066.195-.2v-.722c0-.262.133-.523.266-.789v-.328h-4.207v.328ZM98.668 193.496c.133.2.266.461.266.79v.722c0 .133.062.199.195.199h3.351q.196 0 .196-.2v-.722c0-.262.133-.523.265-.789v-.328h-4.207v.328Zm0 0"/><path fill="none" stroke="#ff3131" stroke-width="12" d="M96.895 81.09v193.672"/><g clip-path="url(#o)"><g clip-path="url(#p)"><g clip-path="url(#q)" transform="translate(87 269)"><g clip-path="url(#r)"><g clip-path="url(#s)"><path fill="#fff" d="M.34.758h19.11v10.004H.34Zm0 0"/></g></g></g></g></g><g clip-path="url(#t)"><g clip-path="url(#u)"><g clip-path="url(#v)"><path fill="#e5e5e3" d="m179.203 183.39-1.004.055c-.172-3.273-1.578-5.644-4.18-7.047-1.96-1.054-3.87-1.14-3.89-1.14l.035-1.004c.09.004 2.172.101 4.332 1.262 2.016 1.082 4.469 3.332 4.707 7.875m-2.16-12.163c-3.059-1.579-5.992-1.524-6.117-1.52l.035 1.371c.027.004 2.754-.043 5.504 1.39 3.637 1.895 5.617 5.376 5.89 10.345l1.368-.075c-.38-6.867-3.84-10.05-6.68-11.511m3.242-3.559c-3.855-2.305-7.652-2.598-7.808-2.61l-.125 1.825c.03.004 3.515.27 6.996 2.355 4.636 2.774 7.023 7.309 7.086 13.477l1.828-.016c-.09-8.531-4.383-12.883-7.977-15.031m0 0"/></g></g></g><path fill="none" stroke="#2e418e" stroke-width="4.5" d="M96.95 329.41h181.1"/></svg>