<svg xmlns="http://www.w3.org/2000/svg" xmlns:xlink="http://www.w3.org/1999/xlink" width="1080" zoomAndPan="magnify" viewBox="0 0 810 809.999993" height="1080" preserveAspectRatio="xMidYMid meet" version="1.0"><path stroke-linecap="round" transform="matrix(1.26999, 0, 0, 1.270312, 400.731605, 419.572679)" fill="none" stroke-linejoin="round" d="M 245.375019 -13.984031 C 245.375019 -56.44099 210.956692 -90.856742 168.50127 -90.856742 C 126.045848 -90.856742 91.627521 -56.44099 91.627521 -13.984031 C 91.627521 -13.984031 91.627521 -13.199898 91.627521 -13.199898 C 91.627521 -56.090437 56.858551 -90.856742 13.96944 -90.856742 C -28.919671 -90.856742 -63.688641 -56.090437 -63.688641 -13.199898 C -63.688641 -13.199898 -63.660959 -6.813058 -63.660959 -6.813058 C -63.660959 -6.813058 -63.660959 -8.095346 -63.660959 -8.095346 C -63.660959 -12.990796 -64.048511 -9.700512 -64.795933 -14.383785 C -71.688826 -57.729428 -109.235253 -90.856742 -154.520422 -90.856742 C -204.699205 -90.856742 -245.376808 -50.180226 -245.376808 0.00121219 C -245.376808 50.179576 -204.699205 90.859167 -154.520422 90.859167 C -148.073521 90.859167 -141.786563 90.185735 -135.721064 88.909597 " stroke="#ffdd00" stroke-width="58" stroke-opacity="1" stroke-miterlimit="4"/><path fill="#ffffff" d="M 264.269531 532.515625 C 264.269531 552.351562 248.195312 568.433594 228.363281 568.433594 C 208.539062 568.433594 192.460938 552.351562 192.460938 532.515625 C 192.460938 512.683594 208.539062 496.605469 228.363281 496.605469 C 248.195312 496.605469 264.269531 512.683594 264.269531 532.515625 Z M 264.269531 532.515625 " fill-opacity="1" fill-rule="nonzero"/><path fill="#ffffff" d="M 747.914062 405.253906 C 747.914062 424.6875 732.167969 440.4375 712.738281 440.4375 C 693.316406 440.4375 677.570312 424.6875 677.570312 405.253906 C 677.570312 385.824219 693.316406 370.074219 712.738281 370.074219 C 732.167969 370.074219 747.914062 385.824219 747.914062 405.253906 Z M 747.914062 405.253906 " fill-opacity="1" fill-rule="nonzero"/></svg>