<svg id="Camada_1" data-name="Camada 1" xmlns="http://www.w3.org/2000/svg" viewBox="0 0 597.16 258.02"><defs><style>.cls-1{fill:#fedd00;}</style></defs><title>CarrisMetropolitana</title><path class="cls-1" d="M543.17,132.55c.53-12.78-2.57-24.71-10-35.06-11.94-16.71-28.58-26-49.07-23.54C456.87,77.17,437.5,95.88,434,123.09c-1.65,12.91-10,23.83-21.87,26.76-17,4.22-34.07-5.44-37.1-22.91-1.76-10.17-3.92-20.15-9.95-28.66-7.91-11.15-18.2-19.15-31.76-22.67-21.63-5.62-39.51,1.27-54.3,16.74-7.65,8-11.88,18.19-13.06,29.46-2.6,24.68-25.64,35.69-45,25.07a27.15,27.15,0,0,1-13.11-15.39c-7.55-22.44-20.69-40.34-42.39-51.26-25.23-12.7-57.23-6.09-76.16,12.55C74.4,107.49,66.23,124.94,67.17,146a66.49,66.49,0,0,0,18.06,43.32c9.15,9.92,20,16.86,33,20.33a64.75,64.75,0,0,0,27.36,1.12c1.79-.3,9.6-1.85,11.42-2,4.41,1.09-5.57,2-5.38,2.25a5.41,5.41,0,0,1-.65.51c-11.35,6.83-17.51,16.92-15.72,30.07,1.71,12.6,9.31,21.4,21.79,25.43,4.3,1.39,9.16-1.31,13.38.73-5.13.78-10.76,2.49-16.17,2.94-16.69,1.39-33.25,1.81-49.6-2.41a125.71,125.71,0,0,1-41.1-18.69C44,235.91,28.91,218.51,18.87,196.49c-9.21-20.18-13.42-41.12-11.62-63,2-24.32,10-46.64,24.77-66.46A134.64,134.64,0,0,1,59.34,39.18,121.7,121.7,0,0,1,116,15.63c7.18-1,14.34-2.21,21.59-1.91C165.94,14.91,191.88,23,214.5,40.6a209.69,209.69,0,0,1,17.05,14.9c38.6-48.13,118.54-59.66,173-5C414.6,40,425.92,31.05,439.24,25.08a127,127,0,0,1,40.45-10.63c17.46-1.63,33.93,1.2,50,7.21A112,112,0,0,1,564,42.15c16.44,14.19,27.49,31.73,34.18,52.19,4.64,14.18,6.83,30,5.3,45-13.07-11.07-15.81-28.84-31.95-27.8C557.46,112.42,542.76,152.82,543.17,132.55Z" transform="translate(-6.84 -13.67)"/><circle cx="157.94" cy="224.25" r="30.39"/><circle cx="566.31" cy="126.7" r="30.39"/></svg>